<?xml version="1.0" standalone="no"?>
<!DOCTYPE svg PUBLIC "-//W3C//DTD SVG 20010904//EN"
 "http://www.w3.org/TR/2001/REC-SVG-20010904/DTD/svg10.dtd">
<svg version="1.0" xmlns="http://www.w3.org/2000/svg"
 width="600.000000pt" height="600.000000pt" viewBox="0 0 600.000000 600.000000"
 preserveAspectRatio="xMidYMid meet">
<g transform="translate(0.000000,600.000000) scale(0.100000,-0.100000)"
fill="#000000" stroke="none">
<path d="M2965 5270 c-52 -24 -553 -218 -575 -223 -14 -3 -88 -32 -165 -65
-123 -52 -140 -62 -140 -83 0 -19 8 -25 55 -36 30 -8 79 -21 108 -29 l52 -15
0 -61 c0 -43 -5 -67 -17 -80 -13 -15 -14 -23 -5 -44 9 -18 9 -31 1 -46 -20
-38 -59 -186 -53 -203 16 -40 116 -61 167 -34 46 25 47 47 8 171 -22 67 -27
96 -20 110 10 19 -4 58 -21 58 -6 0 -10 24 -10 54 0 31 -5 58 -12 62 -7 5 -9
2 -4 -7 4 -8 -2 -3 -13 11 -16 20 -21 39 -21 95 0 78 5 90 45 111 27 14 27 14
19 -14 -5 -15 -9 -65 -9 -111 l0 -85 88 -27 87 -27 0 47 c0 37 5 52 23 68 63
56 180 102 327 128 210 37 501 -13 651 -112 34 -23 39 -30 39 -65 0 -28 3 -37
12 -32 6 4 86 33 177 65 163 56 191 73 164 100 -9 9 -169 71 -615 240 -238 89
-292 102 -343 79z m275 -75 c83 -31 164 -62 178 -69 39 -20 271 -106 286 -106
8 0 19 -7 26 -15 7 -8 11 -15 9 -15 -10 0 -272 94 -456 164 -197 74 -251 87
-303 72 -66 -20 -160 -59 -160 -67 0 -5 13 -3 29 5 16 9 31 13 34 10 2 -3 23
5 45 16 23 12 46 19 52 15 5 -3 10 -2 10 4 0 6 11 6 32 0 18 -5 40 -6 50 -3 9
3 36 -4 59 -16 24 -11 49 -20 56 -20 8 0 11 -5 8 -10 -4 -6 -3 -10 2 -9 4 1
22 -4 38 -11 17 -7 42 -12 57 -11 15 1 29 -3 33 -9 3 -5 15 -10 26 -10 11 0
18 -4 15 -9 -3 -5 0 -8 7 -8 28 1 78 -17 74 -27 -3 -7 10 -11 32 -12 44 -1
131 -25 125 -35 -2 -4 5 -5 16 -2 11 3 20 0 20 -6 0 -6 -6 -11 -14 -11 -8 0
-18 -4 -21 -10 -4 -7 3 -7 20 0 15 6 41 7 58 3 18 -3 45 -6 60 -5 17 1 25 -3
21 -9 -4 -8 0 -8 14 0 16 8 21 7 26 -5 3 -8 11 -14 18 -12 14 2 78 -29 78 -38
0 -3 -5 -2 -11 1 -5 4 -18 0 -27 -8 -9 -8 -43 -21 -74 -28 -31 -7 -55 -16 -53
-19 2 -4 -9 -6 -25 -5 -16 1 -27 -1 -25 -5 5 -9 -45 -33 -53 -25 -3 3 1 5 8 5
7 0 11 2 8 5 -8 9 -38 -6 -32 -16 3 -5 1 -9 -4 -9 -14 0 -21 48 -8 54 6 3 3 4
-6 3 -9 -1 -24 7 -33 18 -9 11 -13 14 -10 7 4 -8 -9 -3 -28 9 -19 13 -33 28
-30 33 3 5 0 7 -8 4 -8 -3 -38 6 -67 19 -29 13 -58 21 -63 18 -5 -4 -9 0 -9 7
0 10 20 13 83 13 45 0 85 -4 88 -8 3 -4 16 -3 30 2 l24 10 -27 2 c-16 1 -76 3
-135 5 -60 1 -121 7 -136 13 -16 6 -40 10 -55 10 -21 -1 -22 -2 -7 -6 37 -9
41 -24 5 -17 -19 4 -36 10 -38 13 -1 4 -66 5 -145 3 -78 -3 -161 -5 -184 -6
-24 0 -43 -4 -43 -8 0 -5 -9 -8 -20 -8 -11 0 -20 -5 -20 -10 0 -6 -12 -8 -27
-4 -22 4 -25 3 -13 -5 12 -9 10 -11 -10 -11 -14 0 -35 -7 -46 -15 -12 -8 -24
-12 -27 -8 -4 3 -13 1 -20 -6 -8 -6 -23 -9 -33 -5 -14 4 -16 3 -5 -4 10 -7 2
-17 -35 -43 -27 -19 -52 -33 -56 -32 -4 2 -5 -9 -2 -23 3 -19 1 -24 -8 -19 -7
4 -6 1 2 -7 19 -17 26 -43 8 -31 -7 4 -38 15 -68 23 l-55 15 -1 83 c0 69 2 82
14 77 12 -4 12 -3 3 9 -9 11 -5 17 23 30 19 9 48 19 65 22 17 4 28 11 25 16
-3 5 0 8 7 7 8 -2 28 4 44 12 17 9 56 24 88 34 31 11 57 23 57 28 0 5 7 6 16
3 8 -3 12 -2 9 4 -3 6 0 10 8 10 7 0 67 20 133 44 161 61 183 60 374 -9z m35
-55 c3 -6 -1 -7 -9 -4 -18 7 -21 14 -7 14 6 0 13 -4 16 -10z m62 -146 c-5 -5
-57 13 -57 20 0 3 14 0 31 -6 16 -6 28 -12 26 -14z m-1053 -31 c-5 -2 -7 -24
-5 -49 2 -36 0 -45 -10 -39 -9 6 -10 3 -5 -10 6 -18 6 -18 -15 1 -12 10 -19
14 -16 7 7 -11 -6 -8 -86 20 l-28 10 28 16 c15 9 47 23 71 31 23 7 42 17 42
21 0 5 8 5 17 2 9 -4 13 -8 7 -10z m246 -97 c0 -2 -8 -10 -17 -17 -16 -13 -17
-12 -4 4 13 16 21 21 21 13z m-203 -108 c-3 -8 -6 -5 -6 6 -1 11 2 17 5 13 3
-3 4 -12 1 -19z m26 -117 c-3 -12 -10 -21 -16 -21 -5 0 -2 -9 7 -19 10 -11 15
-25 10 -32 -4 -8 -3 -10 4 -5 11 7 17 -18 13 -53 -2 -7 2 -10 8 -6 7 4 11 -3
11 -17 0 -13 4 -30 9 -37 6 -9 6 -22 1 -31 -6 -11 -5 -22 3 -30 9 -10 9 -11
-2 -5 -9 5 -19 2 -27 -10 -8 -10 -17 -16 -20 -12 -4 3 -16 1 -28 -5 -18 -10
-19 -9 -9 4 11 12 8 14 -22 13 -27 0 -32 2 -23 12 8 10 7 12 -4 8 -12 -5 -14
1 -11 27 2 18 4 41 5 51 1 10 8 15 15 13 9 -4 11 4 7 27 -4 24 -3 28 5 17 9
-12 11 -10 11 11 0 14 6 31 13 38 10 11 9 12 -3 6 -13 -8 -13 -7 -1 8 11 14
11 20 1 32 -7 9 -10 19 -6 22 4 4 11 2 15 -6 6 -10 10 -9 15 5 3 9 4 19 1 22
-3 3 -5 -1 -5 -8 0 -10 -3 -11 -10 -4 -6 6 -8 18 -5 27 6 14 9 13 25 -3 11
-11 16 -27 13 -39z"/>
<path d="M2775 5140 c-3 -6 1 -7 9 -4 18 7 21 14 7 14 -6 0 -13 -4 -16 -10z"/>
<path d="M2590 5086 c0 -2 7 -7 16 -10 8 -3 12 -2 9 4 -6 10 -25 14 -25 6z"/>
<path d="M2578 5063 c7 -3 16 -2 19 1 4 3 -2 6 -13 5 -11 0 -14 -3 -6 -6z"/>
<path d="M3520 4946 c4 -4 16 -4 26 2 16 9 14 10 -8 9 -15 -1 -23 -6 -18 -11z"/>
<path d="M3565 4939 c-4 -6 -5 -12 -2 -15 2 -3 7 2 10 11 7 17 1 20 -8 4z"/>
<path d="M2859 4945 c-90 -17 -164 -44 -236 -85 l-51 -29 -2 -177 -1 -176 33
32 c55 56 110 75 213 75 65 0 98 -5 120 -16 29 -16 31 -16 64 11 19 16 59 39
90 51 31 12 81 41 111 63 81 61 90 65 150 65 59 1 124 -23 159 -58 l21 -21 0
79 0 79 -72 35 c-110 54 -219 78 -383 82 -96 3 -164 0 -216 -10z m262 -22
c-13 -10 -10 -11 17 -2 18 6 44 8 60 3 28 -8 69 -13 111 -15 19 -1 21 -3 10
-11 -10 -7 -5 -8 18 -6 18 3 30 1 27 -3 -2 -4 17 -14 43 -22 27 -7 47 -19 46
-25 -2 -6 3 -9 11 -6 7 3 21 -2 30 -12 16 -15 16 -18 -6 -42 l-23 -25 25 12
c23 11 23 11 7 -3 -19 -15 -51 -11 -41 5 3 5 -2 6 -11 3 -8 -4 -21 -2 -28 4
-16 13 -136 9 -145 -5 -4 -6 -17 -13 -30 -17 -12 -4 -19 -12 -16 -18 4 -6 2
-8 -3 -5 -6 4 -16 0 -23 -8 -7 -8 -16 -12 -21 -9 -5 3 -8 0 -7 -7 3 -14 -77
-59 -105 -59 -8 0 -35 -16 -60 -35 -27 -21 -48 -31 -52 -25 -4 6 -12 10 -18 9
-7 -1 -21 -1 -32 1 l-20 1 20 8 c14 6 4 9 -33 9 -30 1 -60 6 -68 13 -12 9 -13
9 -9 -2 4 -11 -7 -15 -42 -17 -27 -2 -52 -7 -57 -13 -6 -5 -17 -9 -25 -9 -8 0
-25 -9 -37 -21 l-22 -21 -7 43 c-7 55 -1 221 9 238 7 10 50 32 66 33 3 0 10 4
16 9 6 5 26 11 45 14 49 8 62 11 82 20 9 4 27 5 38 2 12 -3 18 -3 14 1 -14 14
66 27 163 27 81 0 96 -2 83 -12z"/>
<path d="M2702 4854 c-7 -8 -8 -14 -3 -14 10 0 25 19 20 25 -2 1 -10 -3 -17
-11z"/>
<path d="M2620 4825 c-7 -8 -9 -15 -6 -15 4 0 14 7 22 15 9 8 11 15 6 15 -5 0
-15 -7 -22 -15z"/>
<path d="M2690 4809 c0 -5 5 -7 10 -4 6 3 10 8 10 11 0 2 -4 4 -10 4 -5 0 -10
-5 -10 -11z"/>
<path d="M3139 4693 c-13 -16 -12 -17 4 -4 16 13 21 21 13 21 -2 0 -10 -8 -17
-17z"/>
<path d="M2964 4610 c0 -13 4 -16 10 -10 7 7 7 13 0 20 -6 6 -10 3 -10 -10z"/>
<path d="M3313 4689 c-19 -5 -50 -30 -74 -59 -36 -42 -48 -50 -88 -55 -69 -10
-101 -25 -122 -59 -24 -40 -24 -72 2 -134 l21 -51 -32 -65 -32 -66 21 -60 c24
-67 21 -78 -30 -137 -35 -41 -44 -82 -26 -125 15 -36 65 -68 106 -68 13 0 26
-10 33 -25 6 -14 15 -25 20 -25 4 0 18 -10 30 -22 11 -11 42 -25 67 -30 60
-11 101 -51 108 -105 7 -57 -22 -83 -91 -83 -102 0 -121 11 -239 138 -27 29
-56 52 -65 52 -10 0 -23 9 -30 20 -10 16 -19 19 -56 14 -41 -6 -45 -4 -67 26
-43 58 -95 73 -146 43 -28 -16 -31 -15 -68 10 -43 30 -85 34 -146 15 -57 -17
-114 5 -148 55 -48 71 -81 105 -124 126 -23 12 -57 33 -76 46 -36 26 -88 33
-121 15 -33 -17 -43 -81 -30 -181 17 -126 -1 -204 -59 -266 -43 -45 -79 -56
-166 -50 -94 6 -109 2 -135 -38 -25 -37 -27 -154 -5 -295 20 -128 19 -192 -4
-273 -21 -72 -18 -105 15 -156 38 -58 104 -101 157 -101 14 0 40 -17 67 -46
72 -73 87 -79 231 -79 l125 0 72 -37 c85 -45 123 -48 267 -18 58 12 112 17
135 14 81 -13 142 31 195 139 35 69 67 90 188 122 61 16 73 23 115 72 64 74
104 93 192 93 100 0 150 30 150 89 0 23 72 81 101 81 10 0 20 4 23 9 3 4 23
11 44 15 21 3 58 20 82 37 65 47 123 62 185 48 43 -10 56 -9 83 5 17 9 47 16
66 16 45 0 93 28 107 63 10 22 8 36 -10 78 l-22 51 20 39 c12 22 21 46 21 53
0 7 9 21 20 31 11 10 20 28 20 41 0 12 16 41 35 64 40 48 43 66 15 120 -26 51
-26 59 11 108 24 33 37 42 60 42 34 0 40 25 9 35 -11 3 -20 12 -20 19 0 7 -10
25 -21 40 -15 19 -21 41 -21 73 1 25 -5 61 -13 80 -8 20 -15 43 -15 52 0 28
-52 69 -112 90 -69 24 -104 46 -143 90 -42 48 -85 63 -200 71 -103 7 -149 23
-191 64 -34 33 -170 107 -206 111 -18 2 -47 0 -65 -6z m97 -28 c19 -10 38 -19
42 -20 25 -5 38 -15 38 -28 0 -7 6 -13 13 -11 24 5 87 -40 87 -62 0 -7 7 -10
15 -6 18 7 20 -10 3 -18 -7 -3 1 -3 18 0 19 3 37 0 45 -8 9 -9 45 -13 104 -14
50 0 101 -6 115 -13 54 -26 80 -42 80 -50 0 -4 18 -28 41 -52 34 -37 47 -44
79 -45 29 0 46 -7 65 -28 14 -15 25 -24 25 -20 0 4 9 -1 21 -12 14 -13 19 -27
17 -46 -3 -17 1 -29 9 -32 10 -4 11 -11 3 -25 -13 -24 -13 -91 -1 -91 5 0 13
-9 16 -20 4 -11 10 -18 15 -15 5 3 16 -8 25 -25 8 -16 12 -30 7 -30 -19 0 -70
-57 -82 -91 -12 -33 -11 -41 8 -77 24 -46 22 -70 -8 -113 -19 -25 -24 -28 -38
-17 -10 8 -13 9 -9 1 4 -6 4 -13 0 -16 -5 -2 -2 -2 5 -1 15 4 16 -12 1 -21 -5
-4 -8 -12 -6 -18 2 -7 -4 -23 -13 -37 -10 -14 -21 -35 -24 -47 -4 -13 -12 -23
-17 -23 -6 0 -7 -6 -4 -12 4 -7 0 -5 -8 4 -12 15 -14 11 -14 -37 0 -38 4 -56
15 -60 8 -3 12 -12 9 -20 -4 -9 -1 -12 9 -8 24 9 16 -15 -11 -33 -24 -16 -25
-34 -2 -34 9 0 9 2 0 8 -9 6 -7 11 7 20 26 16 26 -2 1 -27 -24 -24 -93 -36
-120 -22 -16 9 -19 9 -15 -2 10 -26 -34 -36 -99 -22 -21 4 -55 3 -79 -3 -30
-8 -44 -8 -49 -1 -4 7 -16 6 -35 -5 l-29 -16 30 5 c28 5 29 5 6 -5 -14 -6 -31
-19 -38 -30 -8 -11 -24 -25 -36 -31 l-22 -12 20 23 20 23 -22 -12 c-12 -6 -25
-16 -28 -21 -3 -6 -15 -10 -26 -10 -10 0 -19 -5 -19 -11 0 -6 -8 -8 -19 -4
-10 3 -23 -1 -30 -9 -7 -8 -26 -18 -42 -21 -16 -4 -27 -10 -24 -15 3 -4 -2
-13 -10 -20 -8 -7 -15 -21 -15 -31 0 -9 -7 -24 -15 -32 -8 -8 -11 -18 -8 -21
4 -4 -10 1 -31 9 -21 9 -41 14 -44 11 -3 -3 1 -6 9 -6 11 0 12 -2 1 -9 -10 -6
-9 -10 7 -14 12 -3 21 -1 21 5 0 5 5 6 11 3 20 -13 -2 -18 -85 -21 -82 -2
-123 -14 -139 -40 -4 -7 -15 -10 -24 -7 -11 4 -14 2 -9 -5 4 -6 -5 -18 -21
-27 -15 -9 -20 -14 -11 -11 12 3 15 1 11 -10 -3 -8 -12 -13 -19 -10 -8 3 -14
-1 -14 -9 0 -7 -16 -19 -34 -26 -19 -7 -32 -17 -29 -22 3 -5 -4 -6 -16 -2 -11
3 -21 3 -21 -2 0 -5 -8 -9 -17 -10 -27 -1 -59 -10 -81 -22 -11 -6 -22 -7 -26
-4 -3 3 -6 1 -6 -6 0 -17 -51 -77 -62 -73 -5 1 -7 -2 -3 -7 3 -6 -2 -25 -11
-43 -18 -36 -84 -101 -93 -92 -3 3 1 9 8 14 10 5 6 8 -11 7 -14 -1 -24 -7 -22
-12 3 -6 -13 -9 -39 -7 -38 3 -67 0 -192 -25 -16 -3 -44 -6 -62 -6 -18 0 -30
-4 -27 -8 2 -4 -16 -1 -41 7 -25 9 -45 19 -45 24 0 4 -14 10 -30 14 -17 3 -29
11 -28 18 2 8 -5 12 -16 10 -10 -2 -22 1 -26 7 -10 18 -69 31 -76 19 -4 -6 -3
-8 2 -5 6 3 16 1 24 -4 10 -6 -4 -8 -42 -6 -31 2 -55 1 -53 -3 6 -9 -87 -3
-117 9 -14 5 -29 15 -33 21 -3 5 -11 8 -16 4 -5 -3 -9 -2 -8 3 4 21 -2 33 -16
33 -7 0 -18 6 -22 13 -13 20 -69 47 -98 47 -18 0 -40 13 -67 40 -23 22 -38 40
-35 40 4 0 -2 9 -14 21 -24 24 -23 58 7 174 12 43 12 122 1 170 -14 60 -23
154 -15 149 4 -3 8 20 8 51 0 31 -4 54 -9 51 -5 -3 -7 -25 -5 -49 l3 -42 -8
40 c-5 23 -5 47 0 57 5 9 6 24 2 34 -5 13 -3 15 7 9 10 -6 12 -4 7 9 -9 24 12
54 35 48 10 -2 18 1 18 7 0 5 7 8 16 4 13 -5 13 -8 2 -15 -9 -7 -8 -8 7 -6 11
2 25 -3 32 -12 10 -13 11 -11 7 10 -2 14 -2 19 2 13 3 -7 10 -13 15 -13 6 0 7
5 4 10 -3 6 0 10 9 10 8 0 16 -6 19 -12 3 -10 8 -9 22 2 10 8 16 11 13 5 -3
-6 7 -10 24 -11 17 -1 25 2 17 6 -9 6 -9 9 2 13 8 2 3 2 -11 0 -22 -3 -23 -2
-7 8 10 6 27 9 38 6 11 -3 16 -1 13 4 -7 12 35 51 47 43 5 -3 6 -11 2 -17 -4
-7 0 -6 10 2 9 7 17 19 17 25 0 6 -4 5 -9 -3 -20 -31 -18 9 2 50 20 40 22 59
22 200 0 169 6 190 52 187 13 -2 30 -9 36 -17 10 -12 9 -14 -5 -8 -16 6 -66
-28 -56 -38 3 -3 11 1 18 10 14 17 35 21 24 4 -4 -8 0 -8 15 0 11 7 21 19 21
27 0 8 4 13 10 9 5 -3 7 -12 3 -20 -3 -10 1 -15 16 -15 11 0 25 -8 30 -19 7
-11 19 -17 34 -16 36 4 54 -10 38 -28 -9 -12 -9 -17 0 -23 7 -4 9 -3 5 4 -10
17 10 23 24 7 10 -12 10 -15 -1 -15 -10 -1 -9 -3 3 -10 9 -6 26 -25 37 -44 37
-59 115 -81 201 -55 33 10 41 9 69 -12 17 -12 33 -20 37 -17 3 4 -4 9 -15 13
-12 3 -21 11 -21 16 0 5 11 2 25 -7 14 -9 25 -20 25 -25 0 -13 52 -10 78 5 35
19 79 8 103 -25 11 -16 18 -33 15 -37 -3 -5 3 -8 12 -8 50 0 104 -7 84 -11
-12 -2 -20 -9 -17 -14 4 -5 16 -7 28 -4 24 6 97 -20 97 -34 0 -6 -14 -19 -30
-31 -17 -12 -28 -25 -25 -30 3 -5 1 -11 -5 -15 -5 -3 -10 -11 -10 -17 0 -6 9
-3 20 7 11 10 17 22 14 26 -3 5 4 9 15 9 12 0 21 5 21 11 0 6 7 8 16 5 15 -6
15 -4 3 11 -12 17 -12 17 6 1 18 -17 18 -18 0 -38 -10 -11 -13 -20 -7 -20 7 0
12 5 12 10 0 6 6 10 13 10 13 0 43 -40 39 -53 -1 -5 2 -6 7 -3 5 3 14 -1 21
-8 6 -8 25 -18 41 -21 29 -7 30 -8 13 -26 -21 -23 -9 -26 13 -3 12 11 26 14
54 9 41 -7 109 10 109 27 0 6 7 8 14 5 10 -4 13 -1 10 7 -3 8 -1 17 5 21 6 3
11 1 11 -5 0 -6 5 -8 10 -5 6 4 4 12 -5 21 -17 18 -19 30 -5 39 6 3 10 12 10
18 0 7 -4 6 -10 -3 -8 -13 -10 -13 -10 2 0 9 -12 34 -26 55 -25 37 -44 59 -31
36 5 -7 0 -9 -13 -6 -25 7 -25 8 3 33 20 19 20 21 2 14 -11 -4 -23 -11 -26
-16 -3 -5 -18 -4 -33 2 -17 6 -25 6 -21 0 12 -19 -10 -9 -34 15 -13 14 -26 25
-30 25 -13 0 -10 41 5 47 7 3 11 9 8 15 -3 5 -14 2 -25 -8 -15 -14 -21 -14
-34 -4 -10 8 -15 9 -15 2 0 -6 -7 -9 -15 -6 -8 4 -13 10 -10 14 3 5 -4 6 -15
3 -13 -4 -20 0 -20 10 0 8 -7 17 -15 21 -20 7 -21 76 -1 76 8 0 20 16 26 35 6
19 16 33 21 30 5 -4 6 2 2 11 -4 11 -2 15 4 11 6 -4 10 17 9 58 -1 61 -9 82
-19 53 -2 -7 -6 4 -8 25 -3 20 -1 37 3 37 4 0 8 12 8 28 0 21 2 24 10 12 8
-13 10 -12 10 3 0 10 6 30 14 45 13 25 12 33 -10 84 -29 69 -25 122 10 113 11
-2 15 -2 9 1 -18 8 4 47 23 40 8 -3 14 -1 14 3 0 5 17 11 38 14 33 4 68 12 82
17 3 1 9 2 13 1 5 -1 6 3 2 9 -5 8 -12 7 -23 -1 -10 -7 -5 0 11 15 15 15 27
31 27 36 0 5 7 7 15 4 9 -4 15 0 15 10 0 9 12 18 28 22 15 3 32 7 37 9 17 6
20 5 55 -14z m-419 -694 c-10 -9 -11 -8 -5 6 3 10 9 15 12 12 3 -3 0 -11 -7
-18z m1106 -489 c-3 -8 -6 -5 -6 6 -1 11 2 17 5 13 3 -3 4 -12 1 -19z"/>
<path d="M3330 4655 c0 -2 16 -9 37 -14 39 -11 70 -3 37 10 -21 8 -74 12 -74
4z"/>
<path d="M3315 4629 c-12 -19 5 -23 22 -6 16 16 16 17 1 17 -9 0 -20 -5 -23
-11z"/>
<path d="M3269 4578 c-11 -20 -10 -21 3 -10 9 7 24 9 34 5 17 -6 17 -5 5 10
-18 23 -28 21 -42 -5z"/>
<path d="M3514 4591 c7 -11 46 -35 46 -28 0 3 -12 12 -26 22 -15 9 -23 12 -20
6z"/>
<path d="M3415 4579 c4 -5 0 -18 -9 -28 -15 -16 -13 -21 29 -70 25 -29 45 -58
45 -64 0 -15 -47 31 -71 70 -12 18 -25 31 -30 28 -5 -4 -6 2 -3 12 6 15 4 15
-9 -2 -18 -22 -22 -36 -9 -33 14 3 42 -14 42 -27 0 -7 11 -20 24 -29 22 -14
23 -19 13 -45 -11 -30 -51 -56 -68 -46 -5 4 -9 2 -9 -3 0 -11 -61 -38 -75 -34
-5 2 -7 0 -2 -4 4 -4 -5 -16 -20 -26 -31 -20 -48 -23 -38 -8 3 6 -1 7 -10 3
-12 -4 -13 -8 -5 -13 8 -5 7 -9 -4 -13 -10 -4 -16 -1 -16 8 0 8 -7 15 -16 15
-14 0 -14 -1 0 -16 22 -21 20 -26 -6 -19 -19 5 -20 4 -6 -5 13 -8 31 -2 80 25
34 20 96 51 136 70 40 19 72 38 71 42 -3 21 3 31 20 36 10 2 24 15 31 27 8 15
8 20 1 16 -12 -8 -15 5 -3 20 4 5 1 4 -7 -3 -12 -10 -20 -5 -47 24 -32 35 -33
37 -19 69 12 30 12 34 -1 34 -8 0 -12 -5 -9 -11z"/>
<path d="M3460 4586 c0 -2 7 -7 16 -10 8 -3 12 -2 9 4 -6 10 -25 14 -25 6z"/>
<path d="M3287 4546 c-4 -10 -1 -13 9 -9 7 3 14 1 14 -5 0 -6 -6 -12 -12 -15
-7 -2 -10 -8 -6 -12 11 -12 39 22 32 39 -8 20 -30 21 -37 2z"/>
<path d="M3580 4393 c0 -6 -8 -14 -17 -16 -10 -3 8 -5 39 -6 33 -1 60 4 64 10
5 9 -4 10 -31 5 -27 -5 -40 -4 -46 6 -6 9 -9 9 -9 1z"/>
<path d="M3687 4379 c-9 -6 -15 -14 -12 -19 3 -5 -15 -7 -39 -5 -49 4 -88 -3
-81 -15 2 -4 62 -6 132 -5 133 2 207 -8 234 -31 15 -13 29 -10 29 6 0 12 -90
31 -175 37 -44 3 -84 9 -90 14 -12 11 180 0 213 -12 32 -12 62 -11 62 2 0 6
-9 8 -20 4 -11 -3 -20 -2 -20 3 0 5 -6 10 -12 9 -62 -2 -111 4 -98 13 11 7 7
9 -15 7 -16 -1 -33 -6 -37 -12 -5 -6 -12 -5 -20 3 -14 14 -27 15 -51 1z"/>
<path d="M3965 4380 c-3 -5 1 -10 9 -10 8 0 18 5 21 10 3 6 -1 10 -9 10 -8 0
-18 -4 -21 -10z"/>
<path d="M3092 4340 c0 -14 2 -19 5 -12 2 6 2 18 0 25 -3 6 -5 1 -5 -13z"/>
<path d="M3416 4327 c-14 -5 -26 -13 -26 -18 0 -6 -6 -9 -12 -8 -24 3 -34 -1
-54 -19 -19 -18 -26 -22 -41 -22 -5 0 -19 -10 -33 -21 l-25 -21 28 17 c38 22
81 30 71 13 -4 -8 -3 -10 2 -5 5 5 10 13 10 18 1 5 2 13 3 17 0 4 13 9 28 10
14 1 34 9 44 18 10 9 23 13 28 9 6 -3 18 0 26 9 14 13 13 15 -3 13 -11 0 -31
-5 -46 -10z"/>
<path d="M3835 4309 c-4 -6 -5 -12 -2 -15 2 -3 7 2 10 11 7 17 1 20 -8 4z"/>
<path d="M4050 4295 c-10 -12 -10 -15 2 -15 8 0 15 7 15 15 0 8 -1 15 -2 15
-2 0 -8 -7 -15 -15z"/>
<path d="M3776 4274 c-11 -8 -16 -14 -10 -14 13 0 39 18 34 24 -3 2 -14 -2
-24 -10z"/>
<path d="M3120 4245 c-7 -9 -11 -17 -9 -20 3 -2 10 5 17 15 14 24 10 26 -8 5z"/>
<path d="M3635 4250 c3 -5 8 -10 11 -10 2 0 4 5 4 10 0 6 -5 10 -11 10 -5 0
-7 -4 -4 -10z"/>
<path d="M3935 4250 c-3 -5 1 -10 9 -10 9 0 16 5 16 10 0 6 -4 10 -9 10 -6 0
-13 -4 -16 -10z"/>
<path d="M3986 4245 c-19 -15 -19 -15 2 -15 13 0 22 6 22 15 0 18 0 18 -24 0z"/>
<path d="M3608 4224 c12 -17 28 -37 37 -44 27 -22 16 -3 -21 36 -31 33 -33 34
-16 8z"/>
<path d="M3744 4242 c-6 -4 -4 -13 8 -24 10 -10 18 -14 18 -9 0 6 -5 13 -10
16 -6 4 -8 11 -5 16 7 11 4 11 -11 1z"/>
<path d="M4168 4237 c14 -6 26 -7 32 -1 5 5 -4 9 -23 10 -30 1 -30 1 -9 -9z"/>
<path d="M3265 4210 c-3 -5 -1 -10 4 -10 6 0 11 5 11 10 0 6 -2 10 -4 10 -3 0
-8 -4 -11 -10z"/>
<path d="M3666 4207 c3 -10 9 -15 12 -12 3 3 0 11 -7 18 -10 9 -11 8 -5 -6z"/>
<path d="M3054 4154 l-1 -44 19 41 c20 45 23 63 8 39 -7 -11 -12 -12 -17 -3
-5 6 -8 -9 -9 -33z"/>
<path d="M3087 4144 c-22 -44 -21 -47 2 -27 11 9 17 23 13 31 -3 10 -1 13 6 8
7 -4 12 -3 12 3 0 25 -18 17 -33 -15z"/>
<path d="M3245 4169 c-4 -6 -5 -12 -2 -15 2 -3 7 2 10 11 7 17 1 20 -8 4z"/>
<path d="M3790 4158 c0 -4 4 -8 9 -8 6 0 12 4 15 8 3 5 -1 9 -9 9 -8 0 -15 -4
-15 -9z"/>
<path d="M3560 4153 c23 -11 7 -21 -47 -27 -31 -4 -62 -11 -69 -17 -8 -6 -21
-6 -39 1 -15 6 -30 8 -33 5 -3 -3 0 -5 6 -5 7 0 12 -3 12 -7 0 -5 -18 -9 -41
-11 -26 -2 -38 1 -34 8 9 14 0 13 -40 -9 -19 -10 -32 -21 -28 -25 3 -3 1 -6
-6 -6 -7 0 -10 -4 -6 -9 5 -9 -35 -44 -42 -37 -2 2 1 15 6 30 17 43 3 29 -18
-19 -15 -35 -24 -44 -38 -39 -14 5 -15 4 -4 -4 14 -10 81 13 81 29 0 4 10 9
22 12 12 4 19 9 15 13 -10 10 13 45 25 38 7 -4 8 -3 4 4 -9 14 9 16 33 2 12
-6 31 -6 55 1 59 16 66 4 9 -15 -29 -10 -53 -22 -53 -27 0 -12 5 -12 45 5 19
8 35 11 35 5 0 -5 5 -9 11 -9 5 0 8 4 5 8 -6 11 31 30 59 31 77 4 164 3 185
-2 14 -4 36 -9 50 -12 l25 -6 -25 12 c-43 19 -82 24 -185 23 -63 -1 -92 2 -78
7 31 11 193 17 199 7 9 -15 24 -8 17 8 -4 11 -13 13 -34 9 -16 -4 -29 -2 -29
3 0 5 -8 12 -17 16 -35 12 -43 14 -33 9z"/>
<path d="M3655 4150 c3 -5 11 -10 16 -10 6 0 7 5 4 10 -3 6 -11 10 -16 10 -6
0 -7 -4 -4 -10z"/>
<path d="M3754 4149 c-3 -6 -1 -16 4 -21 8 -8 11 -5 9 11 -1 24 -3 25 -13 10z"/>
<path d="M3820 4110 c-13 -8 -12 -10 3 -10 9 0 17 5 17 10 0 12 -1 12 -20 0z"/>
<path d="M3860 4110 c-12 -8 -10 -10 8 -10 13 0 20 4 17 10 -7 12 -6 12 -25 0z"/>
<path d="M3690 4105 c0 -8 71 -35 91 -35 12 0 16 5 13 15 -5 12 -9 13 -20 4
-11 -9 -18 -8 -32 5 -17 15 -52 22 -52 11z"/>
<path d="M4151 4057 c-13 -21 -12 -21 5 -5 10 10 16 20 13 22 -3 3 -11 -5 -18
-17z"/>
<path d="M3745 4050 c-4 -6 -4 -10 -1 -10 2 0 11 -3 20 -6 9 -3 16 -2 16 4 0
14 -28 23 -35 12z"/>
<path d="M3725 4030 c3 -6 1 -10 -6 -10 -7 0 -10 -3 -6 -6 3 -3 13 -2 22 4 16
8 16 9 1 15 -10 4 -15 3 -11 -3z"/>
<path d="M3903 4026 c4 -10 7 -19 7 -22 0 -2 19 -13 43 -25 23 -12 37 -24 30
-26 -6 -2 -23 3 -36 11 -20 14 -24 14 -24 1 0 -8 4 -12 8 -9 9 5 50 -15 61
-30 3 -5 14 -11 23 -12 9 -1 31 -14 50 -28 34 -26 62 -35 50 -16 -4 6 -11 8
-16 5 -5 -4 -9 -3 -9 2 0 4 -23 21 -52 37 -29 16 -47 31 -41 33 6 2 27 -4 45
-14 68 -36 87 -43 81 -27 -3 8 -13 14 -23 14 -10 0 -25 7 -34 15 -8 9 -17 16
-18 15 -10 -1 -68 26 -68 31 0 4 -13 10 -30 14 -16 4 -30 13 -30 20 0 8 -5 17
-12 21 -8 5 -9 2 -5 -10z"/>
<path d="M3340 4015 c-15 -18 -42 -19 -58 -3 -8 8 -20 4 -46 -16 -20 -15 -35
-30 -35 -34 3 -19 -3 -32 -31 -63 -42 -48 -38 -60 5 -13 19 21 35 41 35 46 0
4 8 5 18 2 13 -4 14 -3 4 4 -8 5 -13 13 -12 18 3 14 22 34 32 34 6 0 4 -8 -3
-17 -12 -14 -12 -15 0 -9 8 5 17 3 23 -5 7 -10 7 -7 3 9 -6 19 -3 22 24 22 16
0 36 7 44 15 8 8 18 11 22 7 5 -4 5 -1 1 6 -9 15 -11 15 -26 -3z"/>
<path d="M3757 4013 c-4 -3 -7 -11 -7 -17 0 -6 5 -5 12 2 6 6 9 14 7 17 -3 3
-9 2 -12 -2z"/>
<path d="M3806 3971 c-4 -7 -5 -15 -2 -18 9 -9 19 4 14 18 -4 11 -6 11 -12 0z"/>
<path d="M3822 3918 c-6 -35 -13 -67 -15 -73 -7 -18 -27 -60 -36 -75 -5 -8
-16 -30 -23 -47 l-14 -33 -17 36 c-16 32 -37 39 -37 11 0 -7 4 -6 10 3 8 13
10 13 10 -2 0 -9 -4 -19 -9 -22 -5 -3 -11 -18 -14 -33 l-5 -28 24 30 c14 18
24 24 24 15 -1 -18 -50 -80 -50 -62 0 9 -5 10 -19 3 -10 -6 -22 -7 -26 -3 -5
4 -5 1 -1 -6 8 -13 -37 -56 -59 -57 -5 0 -10 -3 -10 -7 0 -15 -50 -58 -62 -54
-7 3 -19 -3 -25 -14 -7 -11 -20 -20 -28 -20 -9 0 -26 -7 -38 -16 -21 -15 -30
-8 -14 12 4 5 -4 -3 -19 -17 -18 -18 -34 -25 -56 -24 -22 1 -30 -2 -26 -12 3
-7 -2 -13 -10 -13 -8 0 -17 6 -20 13 -3 8 -9 7 -19 -6 -7 -10 -29 -20 -48 -22
-19 -1 -48 -11 -65 -20 l-30 -16 35 6 c79 14 251 70 287 93 12 8 28 12 35 9
26 -9 -123 -68 -259 -103 -40 -10 -73 -22 -73 -26 0 -11 12 -10 59 7 22 8 59
16 80 19 22 2 55 12 73 21 62 33 69 36 77 31 4 -3 17 3 28 14 12 11 32 17 47
16 15 -2 29 1 33 7 3 6 1 7 -5 3 -7 -4 -12 -4 -12 1 1 13 84 67 100 65 9 -1
10 1 3 4 -12 6 64 81 78 77 5 -2 5 5 2 14 -4 9 -2 14 3 10 5 -3 16 8 23 24 8
18 20 29 32 29 11 0 18 4 15 9 -7 11 17 71 50 123 14 21 22 43 19 48 -4 6 -1
10 5 10 6 0 9 4 6 9 -3 4 -1 23 4 41 5 18 6 39 2 47 -5 8 -12 -10 -20 -49z
m-152 -297 c0 -5 -10 -16 -22 -24 -13 -8 -45 -36 -73 -61 -27 -25 -52 -40 -54
-34 -2 6 5 15 15 21 10 6 39 32 64 57 43 45 70 61 70 41z m-160 -127 c0 -2 -9
-13 -19 -23 -16 -16 -20 -17 -25 -5 -3 8 1 17 9 20 8 4 12 10 9 15 -3 5 2 6
10 3 9 -3 16 -8 16 -10z"/>
<path d="M3116 3958 c3 -5 10 -6 15 -3 13 9 11 12 -6 12 -8 0 -12 -4 -9 -9z"/>
<path d="M2069 3949 c-9 -5 -8 -14 2 -38 8 -17 18 -31 22 -31 5 0 5 -5 2 -10
-9 -15 -35 8 -35 31 0 10 -4 21 -10 24 -5 3 -10 1 -10 -5 0 -6 -5 -8 -12 -4
-10 6 -10 5 -1 -7 7 -8 10 -24 7 -36 -4 -14 0 -22 13 -27 14 -6 16 -5 6 5 -21
21 -15 34 7 14 11 -10 17 -21 15 -25 -8 -13 92 -140 110 -140 15 0 74 -64 68
-74 -3 -6 -2 -8 2 -3 5 4 17 0 27 -10 10 -9 18 -13 18 -8 0 4 7 2 15 -5 8 -7
13 -16 10 -20 -3 -5 0 -12 6 -16 8 -4 9 -3 5 4 -4 7 -1 12 6 12 8 1 6 6 -6 15
-37 28 -8 26 35 -3 24 -16 79 -44 121 -62 69 -30 78 -31 92 -17 9 8 21 17 28
20 7 2 10 8 6 12 -4 4 -14 2 -22 -4 -10 -8 -27 -10 -48 -6 -59 12 -68 16 -61
28 4 7 -1 5 -12 -3 -17 -14 -17 -13 -12 10 4 14 4 19 1 13 -9 -20 -27 -15 -20
5 6 16 5 16 -8 0 -16 -22 -30 -24 -23 -4 4 11 1 13 -10 9 -13 -5 -15 -2 -10
11 5 13 3 16 -11 12 -12 -4 -30 6 -55 29 -20 19 -37 32 -37 27 0 -4 -16 10
-35 31 -19 21 -33 42 -30 47 3 4 -4 6 -15 3 -13 -4 -20 0 -20 10 0 8 -9 21
-20 28 -12 8 -22 24 -23 35 -1 15 -6 20 -17 16 -8 -3 -12 -2 -8 2 4 5 -2 17
-12 29 -19 19 -22 49 -7 63 18 19 -9 29 -34 13z m48 -116 c19 -41 81 -105 95
-97 6 4 8 3 4 -4 -3 -6 17 -31 46 -56 42 -37 50 -48 39 -58 -7 -7 -11 -8 -9
-3 3 12 -29 46 -67 71 -14 9 -24 18 -22 21 3 2 -11 19 -30 38 -34 34 -50 45
-38 25 10 -16 -1 -11 -16 7 -10 11 -10 14 -1 9 18 -11 15 2 -8 31 -21 27 -26
43 -12 43 4 0 13 -12 19 -27z"/>
<path d="M3148 3943 c7 -3 16 -2 19 1 4 3 -2 6 -13 5 -11 0 -14 -3 -6 -6z"/>
<path d="M3793 3933 c-7 -2 -13 -9 -13 -14 0 -6 4 -8 9 -5 5 4 12 0 14 -6 3
-7 6 -3 6 10 1 12 0 22 -1 21 -2 0 -9 -3 -15 -6z"/>
<path d="M4191 3904 c0 -11 3 -14 6 -6 3 7 2 16 -1 19 -3 4 -6 -2 -5 -13z"/>
<path d="M3779 3878 c0 -7 -2 -21 -4 -30 -2 -10 1 -18 6 -18 5 0 9 6 9 14 0 8
3 21 6 30 3 9 1 16 -5 16 -6 0 -11 -6 -12 -12z"/>
<path d="M4046 3854 c-11 -8 -16 -14 -10 -14 13 0 39 18 34 24 -3 2 -14 -2
-24 -10z"/>
<path d="M4181 3865 c1 -19 18 -51 18 -35 0 8 -4 22 -9 30 -5 8 -9 11 -9 5z"/>
<path d="M3752 3800 c-7 -11 -8 -20 -3 -20 9 0 24 30 18 36 -1 2 -8 -6 -15
-16z"/>
<path d="M1961 3794 c0 -11 3 -14 6 -6 3 7 2 16 -1 19 -3 4 -6 -2 -5 -13z"/>
<path d="M4200 3795 c0 -8 4 -15 10 -15 5 0 7 7 4 15 -4 8 -8 15 -10 15 -2 0
-4 -7 -4 -15z"/>
<path d="M2011 3754 c0 -11 3 -14 6 -6 3 7 2 16 -1 19 -3 4 -6 -2 -5 -13z"/>
<path d="M2598 3763 c7 -3 16 -2 19 1 4 3 -2 6 -13 5 -11 0 -14 -3 -6 -6z"/>
<path d="M3475 3750 c-3 -6 1 -7 9 -4 18 7 21 14 7 14 -6 0 -13 -4 -16 -10z"/>
<path d="M3435 3730 c-3 -6 1 -7 9 -4 18 7 21 14 7 14 -6 0 -13 -4 -16 -10z"/>
<path d="M4190 3725 c-7 -9 -8 -15 -2 -15 5 0 12 7 16 15 3 8 4 15 2 15 -2 0
-9 -7 -16 -15z"/>
<path d="M2280 3700 c0 -5 5 -10 11 -10 5 0 7 5 4 10 -3 6 -8 10 -11 10 -2 0
-4 -4 -4 -10z"/>
<path d="M2774 3684 c-18 -14 -18 -14 6 -3 31 14 36 19 24 19 -6 0 -19 -7 -30
-16z"/>
<path d="M2795 3669 c-4 -6 -5 -12 -2 -15 2 -3 7 2 10 11 7 17 1 20 -8 4z"/>
<path d="M3637 3669 c7 -7 15 -10 18 -7 3 3 -2 9 -12 12 -14 6 -15 5 -6 -5z"/>
<path d="M2037 3638 c4 -13 7 -35 7 -51 -1 -15 1 -25 4 -22 6 6 33 -61 35 -87
1 -9 4 -15 8 -12 4 2 9 -2 12 -10 3 -8 -1 -17 -9 -20 -17 -6 -74 3 -90 15 -6
5 -14 6 -17 2 -4 -3 -13 -1 -20 5 -12 10 -41 19 -71 21 -5 1 -2 9 5 19 11 14
11 15 -1 5 -21 -19 -34 -16 -19 5 13 16 13 16 -6 0 -14 -12 -25 -14 -35 -8 -8
5 -22 10 -30 9 -8 0 -1 -6 15 -13 17 -7 33 -11 38 -9 4 2 7 -1 7 -8 0 -7 3 -9
7 -6 3 4 12 2 19 -3 6 -6 16 -10 20 -9 5 1 29 -8 54 -20 25 -12 36 -19 25 -17
-23 5 -110 30 -142 40 -15 5 -23 3 -23 -4 0 -6 5 -8 10 -5 6 3 10 1 10 -5 0
-6 4 -9 9 -6 14 9 72 -18 67 -31 -4 -10 -1 -10 13 -1 13 8 23 8 37 -1 17 -11
17 -11 -6 -6 -22 5 -23 5 -7 -6 13 -7 22 -8 29 -1 7 7 19 7 37 -1 36 -15 37
-17 22 -27 -10 -6 -7 -8 11 -7 39 3 33 34 -8 42 -19 3 -32 10 -29 15 3 6 16 5
31 0 33 -13 75 -13 55 -1 -10 7 -10 10 -1 13 9 3 7 14 -8 43 -11 22 -29 73
-41 113 -12 39 -24 72 -27 72 -3 0 -2 -10 3 -22z"/>
<path d="M2746 3635 c-4 -13 -2 -14 14 -5 23 13 26 20 6 20 -8 0 -16 -7 -20
-15z"/>
<path d="M2071 3617 c-2 -17 22 -97 29 -97 3 0 7 -6 7 -13 0 -7 8 -25 17 -40
16 -23 21 -25 39 -15 16 8 18 13 8 16 -7 2 -17 -1 -21 -8 -5 -9 -10 -6 -16 11
-4 13 -8 26 -9 29 0 3 -5 12 -10 20 -6 8 -18 35 -27 60 -9 25 -17 41 -17 37z"/>
<path d="M2855 3575 c-16 -14 -34 -25 -39 -25 -12 0 -56 -53 -50 -59 3 -3 9 1
14 10 5 8 29 28 54 44 25 16 47 34 50 42 7 17 6 17 -29 -12z"/>
<path d="M3827 3578 c-8 -13 -25 -33 -36 -45 -12 -13 -19 -23 -15 -23 9 0 74
72 74 82 0 13 -7 9 -23 -14z"/>
<path d="M3666 3575 c-9 -26 -7 -32 5 -12 6 10 9 21 6 23 -2 3 -7 -2 -11 -11z"/>
<path d="M4103 3578 c3 -9 1 -19 -6 -22 -7 -2 -4 -5 6 -5 20 -1 21 7 6 29 -9
13 -10 13 -6 -2z"/>
<path d="M2357 3574 c-9 -10 12 -46 24 -39 5 4 9 2 9 -2 0 -5 17 -9 37 -10 22
0 42 -7 49 -18 7 -9 15 -16 18 -16 31 4 38 -1 16 -11 -14 -6 -29 -12 -35 -13
-5 0 -17 -4 -25 -7 -27 -11 -75 -22 -100 -23 -14 0 -31 -4 -38 -9 -7 -4 -19
-5 -27 -2 -7 2 -19 -2 -25 -10 -11 -12 -7 -13 21 -9 42 7 159 35 179 42 8 4
21 5 28 4 6 -1 12 3 12 9 0 6 10 10 23 8 12 -2 22 -8 22 -15 0 -24 13 -23 18
3 4 23 0 28 -32 41 -73 29 -139 62 -146 72 -7 12 -19 14 -28 5z m37 -22 c3 -5
-1 -9 -9 -9 -8 0 -12 4 -9 9 3 4 7 8 9 8 2 0 6 -4 9 -8z"/>
<path d="M2644 3564 c-18 -14 -18 -15 4 -4 12 6 22 13 22 15 0 8 -5 6 -26 -11z"/>
<path d="M4040 3570 c-9 -6 -10 -10 -3 -10 6 0 15 5 18 10 8 12 4 12 -15 0z"/>
<path d="M1587 3534 c-3 -3 -3 -13 0 -21 5 -12 7 -12 14 -1 15 23 4 40 -14 22z"/>
<path d="M2326 3528 c3 -5 10 -6 15 -3 13 9 11 12 -6 12 -8 0 -12 -4 -9 -9z"/>
<path d="M3430 3504 c-17 -9 -20 -14 -9 -14 9 0 22 7 29 15 15 18 13 18 -20
-1z"/>
<path d="M3915 3509 c-11 -16 -1 -19 13 -3 7 8 8 14 3 14 -5 0 -13 -5 -16 -11z"/>
<path d="M1661 3486 c-6 -16 -10 -34 -8 -40 3 -6 10 2 16 18 6 16 10 34 8 40
-3 6 -10 -2 -16 -18z"/>
<path d="M3875 3490 c-3 -6 1 -7 9 -4 18 7 21 14 7 14 -6 0 -13 -4 -16 -10z"/>
<path d="M1775 3480 c11 -5 27 -9 35 -9 9 0 8 4 -5 9 -11 5 -27 9 -35 9 -9 0
-8 -4 5 -9z"/>
<path d="M2690 3480 c0 -5 5 -10 10 -10 6 0 10 5 10 10 0 6 -4 10 -10 10 -5 0
-10 -4 -10 -10z"/>
<path d="M2733 3467 c-4 -9 -21 -17 -38 -19 -27 -3 -22 -6 40 -30 77 -30 243
-57 253 -42 4 5 18 15 32 21 l25 11 -27 -2 c-16 0 -28 -4 -28 -9 0 -4 -29 -6
-64 -5 -35 2 -62 7 -58 12 3 5 0 6 -6 2 -7 -4 -28 -4 -47 0 -31 5 -34 8 -23
22 11 13 10 14 -9 4 -26 -14 -36 -15 -29 -3 4 5 -4 7 -16 3 -23 -5 -23 -5 -4
16 11 12 17 25 14 28 -4 3 -10 -1 -15 -9z"/>
<path d="M3664 3434 c-19 -15 -19 -15 1 -6 11 5 27 12 35 15 13 5 13 6 -1 6
-8 1 -24 -6 -35 -15z"/>
<path d="M2490 3429 c0 -5 5 -7 10 -4 6 3 10 8 10 11 0 2 -4 4 -10 4 -5 0 -10
-5 -10 -11z"/>
<path d="M2448 3423 c7 -3 16 -2 19 1 4 3 -2 6 -13 5 -11 0 -14 -3 -6 -6z"/>
<path d="M2878 3423 c7 -3 16 -2 19 1 4 3 -2 6 -13 5 -11 0 -14 -3 -6 -6z"/>
<path d="M2660 3405 c-11 -13 -7 -15 21 -17 19 0 40 -1 47 -1 6 1 12 -3 12 -8
0 -5 7 -6 15 -3 8 3 28 -1 44 -9 16 -8 42 -13 58 -11 24 4 25 3 8 -5 -19 -9
-19 -10 -1 -10 11 -1 16 -4 13 -8 -4 -3 -3 -11 2 -17 6 -8 -1 -12 -22 -13 -18
-1 -79 -5 -137 -10 -87 -8 -108 -7 -122 5 -10 8 -29 15 -43 15 -20 0 -23 2
-14 13 6 8 8 14 3 14 -5 0 -1 5 9 11 9 5 17 14 17 20 0 6 -15 -4 -32 -21 -42
-40 -85 -63 -93 -50 -3 6 -16 10 -28 10 -12 0 -38 10 -57 21 -24 15 -30 17
-21 5 8 -9 9 -16 3 -16 -6 0 -13 4 -17 10 -3 5 -13 6 -22 3 -12 -5 -14 -3 -8
7 5 8 4 11 -2 7 -12 -8 -55 21 -48 33 3 4 -4 6 -15 3 -32 -8 -24 -20 31 -44
28 -13 46 -25 41 -27 -6 -2 -31 6 -56 17 -52 24 -68 27 -42 8 17 -12 17 -14 2
-20 -9 -4 -16 -11 -16 -17 0 -6 7 -4 16 4 19 19 20 19 47 4 12 -7 31 -13 42
-13 13 0 19 -6 17 -15 -3 -11 -1 -12 8 -4 8 8 24 9 52 2 23 -5 46 -7 51 -5 6
2 -17 9 -51 17 -34 7 -59 17 -56 21 3 5 9 7 14 4 4 -2 25 -7 46 -11 20 -3 48
-10 61 -15 32 -12 83 -12 83 1 0 16 30 12 36 -5 4 -8 18 -16 33 -16 20 -1 21
-2 6 -6 -11 -2 -31 -9 -44 -16 -19 -9 -25 -9 -36 6 -14 20 -75 24 -75 4 0 -7
-20 -23 -45 -37 -25 -14 -45 -28 -45 -32 0 -5 -4 -8 -9 -8 -19 0 -121 -69
-111 -75 5 -3 10 -2 10 3 0 6 12 15 28 21 26 12 63 33 133 78 19 13 40 23 47
23 7 0 10 5 7 10 -3 6 4 10 16 10 l22 0 -24 -27 -24 -27 26 16 c14 9 41 15 60
13 19 -1 44 1 57 6 14 6 32 5 45 -2 22 -10 22 -10 2 6 -22 19 -24 19 45 -2 11
-4 12 -2 3 4 -11 8 9 10 157 16 14 1 28 5 31 10 4 5 23 9 43 9 20 0 39 5 42
10 4 7 9 7 13 0 4 -7 15 -4 31 8 23 18 21 18 -65 -1 -50 -10 -142 -21 -205
-23 l-115 -5 120 13 c66 8 138 17 159 21 l39 8 -29 13 c-16 7 -22 13 -14 13
13 1 13 2 0 12 -11 8 2 9 49 5 94 -9 71 1 -44 18 -55 8 -127 24 -159 36 -70
24 -61 23 -76 5z m-70 -159 c0 -2 -7 -7 -16 -10 -8 -3 -12 -2 -9 4 6 10 25 14
25 6z"/>
<path d="M3188 3413 c7 -3 16 -2 19 1 4 3 -2 6 -13 5 -11 0 -14 -3 -6 -6z"/>
<path d="M2218 3403 c7 -3 16 -2 19 1 4 3 -2 6 -13 5 -11 0 -14 -3 -6 -6z"/>
<path d="M2389 3393 c-13 -17 -13 -17 6 -3 11 8 22 16 24 17 2 2 0 3 -6 3 -6
0 -17 -8 -24 -17z"/>
<path d="M3613 3398 c-15 -20 -25 -38 -20 -38 3 0 12 11 21 25 17 26 16 35 -1
13z"/>
<path d="M2288 3392 c-10 -2 -18 -8 -18 -13 0 -11 7 -11 50 6 29 11 31 13 10
12 -14 -1 -33 -3 -42 -5z"/>
<path d="M2580 3390 c0 -4 15 -10 34 -12 22 -2 32 0 29 8 -5 13 -63 17 -63 4z"/>
<path d="M3364 3384 c-18 -14 -18 -14 6 -3 31 14 36 19 24 19 -6 0 -19 -7 -30
-16z"/>
<path d="M1637 3377 c-3 -8 -1 -20 4 -28 6 -10 9 -7 9 14 0 29 -5 35 -13 14z"/>
<path d="M3549 3333 c-13 -16 -12 -17 4 -4 16 13 21 21 13 21 -2 0 -10 -8 -17
-17z"/>
<path d="M2940 3316 c6 -6 18 -5 32 2 22 10 21 10 -9 9 -19 -1 -28 -6 -23 -11z"/>
<path d="M3806 3311 c-3 -5 16 -6 42 -4 69 7 74 11 15 12 -28 1 -54 -3 -57 -8z"/>
<path d="M1641 3294 c0 -11 3 -14 6 -6 3 7 2 16 -1 19 -3 4 -6 -2 -5 -13z"/>
<path d="M2145 3300 c-13 -6 -15 -9 -5 -9 8 0 22 4 30 9 18 12 2 12 -25 0z"/>
<path d="M3178 3303 c7 -3 16 -2 19 1 4 3 -2 6 -13 5 -11 0 -14 -3 -6 -6z"/>
<path d="M1572 3285 c0 -21 25 -107 27 -90 0 6 -6 33 -13 60 -8 28 -14 41 -14
30z"/>
<path d="M3768 3293 c7 -3 16 -2 19 1 4 3 -2 6 -13 5 -11 0 -14 -3 -6 -6z"/>
<path d="M3462 3260 c-18 -29 -15 -33 8 -10 21 21 25 30 12 30 -4 0 -13 -9
-20 -20z"/>
<path d="M2990 3263 c0 -5 -23 -33 -51 -61 -35 -34 -50 -55 -46 -66 10 -25 23
-19 37 15 7 17 18 36 24 42 22 23 47 69 42 75 -3 3 -6 1 -6 -5z m-62 -98 c-10
-22 -28 -35 -28 -20 0 5 33 45 37 45 1 0 -3 -11 -9 -25z"/>
<path d="M3017 3243 c6 -16 8 -16 23 1 9 12 8 15 -8 13 -12 0 -18 -6 -15 -14z"/>
<path d="M3065 3250 c-3 -6 1 -7 9 -4 18 7 21 14 7 14 -6 0 -13 -4 -16 -10z"/>
<path d="M3380 3256 c0 -2 7 -7 16 -10 8 -3 12 -2 9 4 -6 10 -25 14 -25 6z"/>
<path d="M3196 3233 c-6 -14 -5 -15 5 -6 7 7 10 15 7 18 -3 3 -9 -2 -12 -12z"/>
<path d="M2989 3213 c-12 -16 -12 -17 2 -6 12 10 18 10 29 0 12 -10 12 -9 1 6
-7 9 -15 17 -16 17 -1 0 -9 -8 -16 -17z"/>
<path d="M3385 3210 c-3 -6 1 -7 9 -4 18 7 21 14 7 14 -6 0 -13 -4 -16 -10z"/>
<path d="M3533 3213 c9 -2 23 -2 30 0 6 3 -1 5 -18 5 -16 0 -22 -2 -12 -5z"/>
<path d="M1643 3160 c0 -25 2 -35 4 -22 2 12 2 32 0 45 -2 12 -4 2 -4 -23z"/>
<path d="M3076 3175 c-11 -8 -15 -15 -10 -15 6 0 19 7 30 15 10 8 15 14 9 14
-5 0 -19 -6 -29 -14z"/>
<path d="M1598 3133 c-3 -27 -1 -55 3 -63 5 -9 9 10 9 48 0 74 -6 81 -12 15z"/>
<path d="M2949 3153 c-7 -16 -15 -31 -17 -35 -2 -5 9 -8 25 -8 25 1 26 2 11
13 -12 10 -14 17 -6 31 5 9 8 19 6 22 -3 2 -11 -8 -19 -23z"/>
<path d="M2350 3139 c0 -5 5 -7 10 -4 6 3 10 8 10 11 0 2 -4 4 -10 4 -5 0 -10
-5 -10 -11z"/>
<path d="M2857 3136 c-9 -9 -12 -26 -9 -41 2 -15 -1 -37 -8 -51 -11 -19 -16
-22 -29 -12 -13 10 -14 10 -4 -2 10 -11 9 -16 -5 -26 -9 -7 -14 -15 -11 -19 4
-3 19 8 35 25 16 16 33 30 38 30 6 0 -5 -16 -24 -35 -19 -19 -29 -35 -23 -35
7 0 18 7 26 15 8 8 17 12 20 9 3 -3 4 3 4 13 -2 12 4 17 16 15 9 -2 17 2 17 8
0 5 -7 10 -16 10 -13 0 -15 10 -12 55 1 30 2 55 1 55 -1 0 -8 -6 -16 -14z"/>
<path d="M3033 3136 c-29 -27 -43 -36 -60 -36 -12 0 -14 -3 -6 -11 13 -13 39
-1 67 30 20 22 19 37 -1 17z"/>
<path d="M3250 3130 c-23 -7 -23 -8 -3 -9 12 -1 25 4 28 9 3 6 5 10 3 9 -2 -1
-14 -5 -28 -9z"/>
<path d="M2277 3095 c-20 -14 -37 -28 -37 -31 0 -6 67 32 85 48 21 19 -13 7
-48 -17z"/>
<path d="M3130 3110 c0 -3 -17 -5 -37 -4 -35 1 -35 1 -5 -3 22 -3 32 -9 29
-17 -3 -8 7 -11 33 -10 21 1 43 5 49 8 8 6 40 1 129 -19 12 -3 22 -1 22 5 0 6
-4 8 -10 5 -5 -3 -10 -2 -10 3 0 6 -8 8 -19 5 -10 -2 -25 2 -32 9 -10 11 -25
12 -68 6 -30 -5 -62 -7 -70 -5 -10 3 -8 5 6 6 12 0 24 5 27 10 3 5 -5 8 -19 7
-14 0 -25 -3 -25 -6z"/>
<path d="M2190 3090 c-9 -6 -10 -10 -3 -10 6 0 15 5 18 10 8 12 4 12 -15 0z"/>
<path d="M3052 3080 c-51 -12 -52 -22 -2 -14 49 7 55 10 43 16 -4 3 -23 2 -41
-2z"/>
<path d="M3194 3068 c-3 -4 2 -8 11 -8 9 0 14 -4 11 -8 -3 -5 8 -6 24 -4 17 2
28 8 25 12 -7 11 -65 18 -71 8z"/>
<path d="M2965 3061 c-3 -5 -1 -12 4 -15 5 -3 11 1 15 9 6 16 -9 21 -19 6z"/>
<path d="M3375 3060 c3 -5 8 -10 11 -10 2 0 4 5 4 10 0 6 -5 10 -11 10 -5 0
-7 -4 -4 -10z"/>
<path d="M3295 3050 c3 -5 11 -10 16 -10 6 0 7 5 4 10 -3 6 -11 10 -16 10 -6
0 -7 -4 -4 -10z"/>
<path d="M2934 3033 c-12 -2 -24 -14 -27 -26 -6 -20 -5 -20 7 -4 7 9 21 17 30
17 9 0 16 5 16 10 0 6 -1 9 -2 9 -2 -1 -13 -4 -24 -6z"/>
<path d="M3274 3032 c3 -5 0 -13 -6 -15 -9 -4 -10 -6 -1 -6 17 -1 25 16 12 25
-7 4 -9 3 -5 -4z"/>
<path d="M2030 3000 c-8 -5 -12 -11 -10 -14 3 -2 14 2 24 10 22 15 10 19 -14
4z"/>
<path d="M3160 3000 c-8 -5 -10 -10 -5 -10 6 0 17 5 25 10 8 5 11 10 5 10 -5
0 -17 -5 -25 -10z"/>
<path d="M1574 2969 c0 -10 4 -19 8 -19 4 0 8 6 8 14 0 8 -4 17 -8 20 -4 2 -8
-4 -8 -15z"/>
<path d="M2754 2955 c-10 -8 -14 -15 -8 -15 6 0 17 7 24 15 16 19 9 19 -16 0z"/>
<path d="M2789 2958 c-5 -9 -5 -48 -1 -43 6 6 11 45 5 45 -2 0 -4 -1 -4 -2z"/>
<path d="M2036 2934 c-11 -8 -16 -14 -10 -14 13 0 39 18 34 24 -3 2 -14 -2
-24 -10z"/>
<path d="M1567 2933 c-4 -3 -7 -13 -7 -22 1 -13 3 -13 11 2 11 19 8 33 -4 20z"/>
<path d="M2691 2905 c-44 -32 -71 -61 -64 -69 12 -12 21 -6 27 19 4 14 10 25
14 25 8 0 69 49 61 50 -3 0 -20 -11 -38 -25z"/>
<path d="M2746 2911 c-10 -11 -31 -26 -48 -34 -16 -8 -26 -17 -20 -21 10 -6
78 42 86 62 7 17 2 15 -18 -7z"/>
<path d="M1985 2900 c-16 -7 -17 -9 -3 -9 9 -1 20 4 23 9 7 11 7 11 -20 0z"/>
<path d="M2780 2875 c0 -8 2 -15 4 -15 2 0 6 7 10 15 3 8 1 15 -4 15 -6 0 -10
-7 -10 -15z"/>
<path d="M1910 2861 c0 -5 -18 -8 -41 -7 -31 0 -45 -5 -59 -22 -10 -12 -26
-22 -37 -22 -10 0 -25 -5 -33 -10 -10 -7 -1 -8 30 -4 25 4 48 12 52 18 7 10
12 -6 9 -26 0 -4 11 -11 26 -14 20 -6 31 -2 45 16 13 16 15 26 8 35 -8 10 -5
17 12 29 18 13 19 16 5 16 -9 0 -17 -4 -17 -9z m-36 -27 c23 -9 21 -44 -2 -44
-25 0 -31 7 -25 31 6 21 6 21 27 13z"/>
<path d="M2720 2824 c-52 -40 -129 -94 -134 -94 -2 0 -27 -16 -56 -35 -29 -19
-49 -35 -45 -35 12 0 190 111 193 121 2 5 10 9 18 9 8 0 14 4 14 9 0 5 9 13
20 16 11 3 25 15 30 26 13 24 14 24 -40 -17z"/>
<path d="M2585 2820 c3 -5 8 -10 11 -10 2 0 4 5 4 10 0 6 -5 10 -11 10 -5 0
-7 -4 -4 -10z"/>
<path d="M2554 2799 c-3 -5 -15 -7 -27 -4 -17 5 -19 4 -7 -4 13 -9 13 -11 -2
-11 -10 0 -18 -4 -18 -9 0 -5 -13 -7 -30 -6 -16 1 -29 0 -28 -4 1 -3 -2 -14
-7 -24 -11 -25 3 -34 19 -12 7 10 18 15 24 11 7 -4 12 -2 12 4 0 15 60 49 75
44 7 -3 16 -1 19 4 3 6 -1 12 -9 16 -8 3 -17 1 -21 -5z"/>
<path d="M2812 2791 c-11 -7 -11 -9 0 -14 9 -3 15 1 15 9 0 8 -1 14 -1 14 -1
0 -7 -4 -14 -9z"/>
<path d="M1668 2763 c7 -3 16 -2 19 1 4 3 -2 6 -13 5 -11 0 -14 -3 -6 -6z"/>
<path d="M2519 2750 c-13 -10 -19 -19 -13 -20 6 0 19 9 29 20 23 26 14 26 -16
0z"/>
<path d="M1845 2749 c-11 -16 -1 -19 13 -3 7 8 8 14 3 14 -5 0 -13 -5 -16 -11z"/>
<path d="M2079 2703 c-13 -15 -12 -15 9 -4 23 12 28 21 13 21 -5 0 -15 -7 -22
-17z"/>
<path d="M2490 2710 c-8 -5 -10 -10 -5 -10 6 0 17 5 25 10 8 5 11 10 5 10 -5
0 -17 -5 -25 -10z"/>
<path d="M1825 2700 c3 -5 8 -10 11 -10 2 0 4 5 4 10 0 6 -5 10 -11 10 -5 0
-7 -4 -4 -10z"/>
<path d="M2427 2683 c3 -7 9 -10 14 -7 14 8 11 21 -5 21 -8 0 -12 -6 -9 -14z"/>
<path d="M2445 2650 c-10 -11 -13 -20 -7 -20 6 0 14 5 17 10 4 6 11 8 16 5 5
-3 6 1 3 9 -8 20 -7 20 -29 -4z"/>
<path d="M2360 2559 c0 -5 5 -7 10 -4 6 3 10 8 10 11 0 2 -4 4 -10 4 -5 0 -10
-5 -10 -11z"/>
<path d="M3985 4689 c-4 -5 -3 -8 2 -7 17 5 152 -47 243 -93 387 -197 487
-563 250 -916 -62 -92 -189 -226 -208 -218 -8 3 -10 0 -6 -7 5 -8 2 -9 -11 -4
-15 5 -16 4 -5 -9 11 -13 19 -9 63 28 93 78 215 207 261 276 108 162 137 291
97 433 -45 163 -173 301 -376 405 -117 60 -302 127 -310 112z m536 -301 c11
-21 11 -22 -4 -9 -10 7 -17 17 -17 22 0 15 9 10 21 -13z m34 -28 c3 -5 -1 -10
-10 -10 -9 0 -13 5 -10 10 3 6 8 10 10 10 2 0 7 -4 10 -10z m22 -26 c-4 -4 7
-24 24 -45 17 -22 28 -39 24 -39 -4 0 -1 -10 7 -22 29 -45 41 -141 29 -215
-14 -77 -41 -173 -50 -173 -3 0 -13 -14 -20 -32 -9 -19 -16 -27 -19 -19 -2 7
1 17 8 21 7 4 9 13 6 19 -4 6 -3 11 3 11 6 0 8 8 5 18 -5 15 -4 15 6 2 9 -12
11 -10 7 13 -2 15 0 27 5 27 6 0 7 7 4 16 -3 8 -2 12 4 9 6 -3 10 -1 10 4 0 6
-5 11 -10 11 -7 0 -7 7 0 21 10 18 7 146 -4 209 -14 79 -20 100 -27 100 -10 0
-38 57 -31 64 3 3 10 6 15 6 6 0 7 -3 4 -6z m3 -567 c0 -2 -12 -14 -27 -28
l-28 -24 24 28 c23 25 31 32 31 24z"/>
<path d="M4560 4566 c0 -2 22 -18 48 -34 109 -67 215 -201 247 -314 21 -73 23
-181 5 -259 -67 -287 -417 -659 -880 -936 -308 -184 -735 -351 -1040 -409 -52
-10 -88 -19 -79 -21 20 -5 308 47 458 82 202 48 568 183 595 220 6 9 22 17 36
20 14 3 37 14 52 25 15 11 32 20 37 20 5 0 13 5 16 10 11 17 -11 11 -48 -14
-19 -13 -49 -27 -66 -31 -17 -4 -31 -11 -31 -16 0 -5 -8 -9 -18 -9 -10 0 -27
-7 -38 -15 -12 -8 -24 -12 -27 -9 -3 3 -17 -2 -32 -12 -25 -16 -27 -16 -43 0
-9 10 -12 16 -7 15 6 -2 25 5 43 14 18 10 37 15 42 12 5 -3 12 0 16 6 5 8 3 9
-7 4 -8 -5 -11 -5 -8 -2 6 8 73 44 172 94 37 19 65 38 62 43 -3 6 1 7 9 4 10
-4 18 1 22 11 4 9 13 14 20 11 8 -3 13 0 11 7 -1 7 10 10 31 8 30 -2 33 0 30
20 -2 12 3 24 11 27 8 2 11 0 8 -5 -3 -5 3 -9 13 -9 18 0 18 2 3 18 -9 10 -13
19 -10 19 4 1 12 3 17 4 6 1 16 3 24 4 8 0 17 9 21 20 4 13 13 17 33 15 26 -2
26 -2 8 12 -19 13 -18 14 10 12 16 -1 33 -7 37 -13 5 -6 6 -1 2 10 -12 35 -10
40 11 39 11 0 21 5 21 12 0 7 -5 10 -10 7 -6 -3 -7 -1 -3 6 6 9 11 9 24 -1 10
-8 13 -9 9 -1 -7 12 17 43 34 43 8 0 13 -15 10 -33 -1 -5 2 -6 7 -3 10 6 9 36
-1 53 -4 6 -2 15 4 19 8 5 9 3 4 -5 -6 -10 -3 -11 16 -1 42 22 60 42 53 62 -3
10 -2 17 3 16 17 -5 52 23 47 37 -4 8 -2 15 4 15 6 0 13 -6 15 -12 4 -10 6
-10 6 0 1 7 5 11 10 8 4 -3 7 5 6 18 -3 24 48 93 65 89 6 -2 10 1 10 5 0 5 18
36 39 70 22 33 37 63 34 66 -4 3 -1 6 6 6 7 0 9 5 6 10 -5 9 15 15 38 11 4 -1
3 8 -4 20 -8 17 -8 23 1 29 7 4 9 13 6 19 -11 17 0 13 20 -6 17 -17 17 -17 11
-1 -3 10 -2 20 3 23 13 8 13 65 0 65 -7 0 -7 6 -1 18 5 9 12 40 16 67 4 28 12
58 17 69 7 13 7 16 -1 12 -7 -5 -11 2 -11 18 0 39 17 39 25 0 3 -20 9 -34 11
-31 10 10 -9 77 -22 77 -17 0 -32 57 -26 99 4 26 2 32 -8 26 -10 -6 -12 -2 -8
13 4 12 2 20 -3 16 -8 -5 -13 9 -10 29 0 4 -6 7 -14 7 -19 0 -19 7 -1 26 13
12 18 9 37 -26 14 -25 25 -36 30 -29 4 8 11 5 18 -9 16 -30 14 -37 -6 -21 -16
13 -17 12 -5 -3 8 -10 20 -14 30 -11 9 3 14 3 10 -2 -4 -4 -2 -17 5 -29 13
-22 14 -28 16 -65 1 -19 4 -21 15 -11 12 9 16 5 24 -27 20 -78 22 -93 14 -93
-5 0 -9 -7 -9 -15 0 -8 5 -15 10 -15 17 0 0 -185 -21 -227 -11 -21 -17 -44
-15 -50 3 -7 -1 -13 -7 -13 -7 0 -10 -6 -7 -14 3 -8 3 -16 -1 -18 -11 -4 -92
-144 -92 -158 0 -6 -4 -9 -9 -6 -4 3 -17 -4 -27 -16 -11 -12 -13 -18 -5 -13 9
5 12 3 9 -6 -3 -8 -11 -13 -17 -11 -7 1 -10 -2 -6 -8 9 -14 -8 -13 -25 3 -12
10 -12 9 -2 -4 6 -9 8 -20 4 -24 -4 -5 0 -5 8 -1 13 6 13 5 0 -6 -9 -7 -26
-28 -39 -46 -12 -18 -27 -30 -32 -26 -5 3 -12 -3 -16 -13 -9 -26 -42 -55 -53
-48 -6 4 -7 -1 -3 -11 5 -13 3 -15 -7 -9 -9 5 -11 4 -6 -3 11 -17 -5 -14 -26
5 -12 10 -18 12 -18 4 0 -7 -5 -9 -12 -5 -8 4 -9 3 -5 -2 5 -5 16 -9 24 -9 9
0 18 -6 21 -14 3 -9 0 -11 -8 -6 -9 5 -11 4 -6 -3 12 -19 -6 -14 -33 11 l-26
22 23 -26 c19 -22 20 -28 9 -37 -8 -7 -18 -8 -22 -4 -5 4 -5 1 -1 -5 4 -8 1
-13 -8 -13 -8 0 -18 -5 -22 -12 -5 -7 -3 -8 6 -3 9 6 11 4 6 -4 -5 -7 -15 -10
-23 -7 -8 3 -12 2 -9 -3 3 -5 -1 -12 -10 -15 -23 -9 -26 -8 -18 7 4 6 5 10 1
7 -3 -3 -6 -9 -7 -15 -4 -21 -21 -45 -33 -45 -8 0 -7 4 3 11 13 9 13 10 0 6
-8 -2 -14 -11 -12 -21 3 -15 -9 -20 -45 -19 -6 0 -9 -5 -7 -11 2 -6 -11 -20
-31 -30 -19 -10 -32 -22 -30 -26 2 -4 -8 -5 -23 -3 -21 4 -24 2 -12 -6 13 -10
8 -15 -12 -12 -5 0 -8 -4 -8 -10 0 -6 -7 -8 -16 -5 -8 3 -13 2 -10 -3 6 -8
-163 -113 -204 -126 -14 -4 -38 -17 -55 -29 -16 -12 -36 -22 -44 -24 -8 -2
-25 -12 -39 -23 -29 -22 -52 -24 -72 -6 -12 10 -12 9 -1 -5 12 -16 10 -20 -20
-32 -19 -8 -38 -12 -43 -9 -5 4 -6 1 -3 -4 9 -14 -15 -23 -42 -16 -14 3 -23 0
-27 -11 -4 -9 -23 -19 -46 -22 -27 -5 -35 -10 -26 -15 10 -7 8 -9 -7 -10 -11
-1 -27 0 -35 1 -8 1 -11 -2 -7 -6 14 -15 -35 -32 -69 -24 -19 5 -34 4 -34 -1
0 -5 10 -9 23 -10 18 -1 17 -2 -8 -10 -16 -6 -34 -11 -40 -12 -5 -2 -15 -6
-22 -10 -7 -4 -16 -1 -20 8 -8 13 -14 12 -43 -10 -19 -14 -43 -25 -54 -26 -12
0 -15 -3 -8 -6 6 -2 12 -9 12 -14 0 -6 -7 -6 -17 -1 -23 12 -43 5 -43 -15 0
-10 -6 -13 -16 -9 -19 7 -64 -3 -64 -15 0 -5 8 -6 18 -3 15 5 15 4 -2 -10 -10
-8 -23 -13 -29 -9 -6 4 -7 1 -2 -6 4 -8 -1 -18 -14 -27 -12 -8 -21 -21 -21
-27 0 -7 5 -4 11 5 8 15 13 15 23 5 8 -6 12 -15 10 -18 -5 -9 96 0 130 11 20
7 33 7 40 0 7 -7 2 -10 -16 -10 -14 0 -31 -6 -37 -14 -10 -12 -94 -30 -146
-31 -11 0 -27 -4 -35 -10 -8 -5 -21 -10 -30 -12 -8 -1 -49 -9 -90 -17 -41 -8
-88 -12 -105 -9 -22 3 -26 2 -15 -6 11 -7 8 -10 -15 -9 -17 0 -51 -5 -77 -11
-27 -6 -51 -10 -55 -9 -5 1 -28 -1 -53 -5 -195 -30 -692 -22 -758 12 -9 4 -23
6 -30 4 -7 -3 -25 -2 -39 2 -20 5 -23 9 -13 15 8 5 -2 7 -26 5 -38 -4 -114 17
-199 55 -22 10 -51 23 -65 29 -24 10 -24 10 5 6 28 -5 28 -5 7 5 -13 5 -28 7
-33 4 -6 -3 -15 -1 -22 4 -7 5 -25 12 -40 16 -15 4 -25 11 -22 17 4 5 3 8 -2
7 -14 -4 -53 13 -53 23 0 5 -7 9 -15 9 -8 0 -15 5 -15 10 0 6 -6 10 -14 10 -8
0 -18 5 -22 12 -5 7 -3 8 6 3 9 -5 11 -4 6 3 -4 7 -13 12 -20 12 -18 0 -49 37
-41 49 3 6 14 11 23 11 15 1 16 1 1 10 -9 5 -22 24 -30 42 -14 37 -59 96 -59
78 0 -6 -4 -9 -9 -6 -5 4 -11 0 -14 -6 -5 -15 -46 29 -47 49 0 6 -5 15 -11 19
-8 4 -9 -1 -5 -17 6 -21 5 -22 -4 -6 -9 13 -9 22 0 32 8 10 8 19 1 33 -6 11
-14 45 -17 76 -4 31 -11 59 -17 63 -6 3 -8 -6 -5 -26 2 -17 1 -31 -4 -31 -4 0
-8 10 -9 23 0 12 -2 31 -5 42 -7 35 8 163 17 140 8 -20 10 -5 13 88 0 15 4 27
8 27 5 0 8 9 8 19 0 11 6 26 13 33 8 7 12 19 9 26 -2 6 2 12 8 12 7 0 10 6 7
14 -3 8 1 20 9 26 8 7 14 19 14 26 0 8 4 14 9 14 5 0 13 9 16 20 4 11 10 18
15 15 5 -3 11 8 15 25 4 16 11 32 15 35 19 12 -22 -81 -43 -98 -12 -10 -16
-16 -9 -12 13 7 17 -11 3 -19 -10 -7 -36 -96 -33 -113 2 -7 -1 -13 -5 -13 -5
0 -7 -32 -5 -71 3 -42 0 -75 -6 -81 -8 -8 -6 -22 4 -48 8 -20 14 -41 12 -46
-5 -20 12 -75 23 -69 6 4 9 1 7 -8 -2 -9 0 -16 5 -16 11 -1 44 -35 41 -42 -4
-7 33 -59 49 -70 5 -4 4 -9 -1 -13 -6 -4 -16 4 -23 16 -14 26 -39 53 -39 42 0
-20 47 -73 70 -78 14 -3 48 -27 75 -53 48 -46 114 -98 125 -98 3 0 16 -8 30
-18 22 -15 22 -17 5 -17 -16 0 -17 -2 -5 -10 9 -5 19 -5 27 1 9 8 24 4 53 -12
27 -15 36 -25 28 -30 -7 -5 -10 -10 -7 -13 8 -8 49 5 49 16 0 5 9 4 20 -2 11
-6 20 -17 20 -25 0 -8 3 -15 8 -16 4 0 14 -2 22 -4 68 -16 121 -23 157 -21 23
1 40 0 38 -3 -6 -5 51 -31 69 -31 6 0 4 5 -4 11 -11 8 -8 9 15 4 54 -12 227
-21 370 -19 77 1 140 3 140 4 0 1 25 4 55 5 58 4 180 20 265 35 28 5 61 11 75
14 88 15 147 32 215 61 31 13 79 25 121 30 13 1 30 7 37 14 22 18 127 49 133
40 7 -11 41 -12 48 0 3 4 -6 6 -21 3 -18 -3 -24 -1 -19 7 4 6 13 11 19 11 7 0
31 9 52 20 24 12 49 18 63 15 13 -3 32 1 45 10 12 8 16 15 10 15 -7 0 -15 -4
-18 -10 -3 -5 -14 -10 -23 -10 -23 0 -4 15 35 28 19 6 35 7 38 2 3 -5 13 -6
21 -3 13 5 13 7 2 14 -7 5 -11 9 -8 9 3 1 19 3 35 5 43 5 77 13 84 20 6 7 -33
1 -72 -10 -12 -4 9 10 47 30 39 20 76 44 83 53 8 11 12 12 13 5 0 -7 5 -13 11
-13 5 0 7 5 3 11 -4 8 1 9 17 4 18 -5 20 -4 9 4 -16 11 -15 13 14 28 10 6 15
13 10 15 -5 3 -47 -17 -94 -44 -304 -178 -756 -324 -1173 -378 -196 -25 -462
-27 -616 -4 -326 47 -527 131 -681 284 -197 196 -238 412 -128 668 53 122 176
291 200 275 6 -3 8 -1 4 5 -3 6 4 18 16 26 12 9 19 19 15 23 -4 4 -51 -36
-103 -88 -225 -220 -324 -414 -324 -629 1 -110 12 -156 63 -260 34 -69 60
-104 137 -181 52 -53 114 -108 138 -123 283 -176 710 -255 1167 -215 371 32
663 93 1095 228 44 14 68 17 75 10 15 -15 -25 -42 -142 -93 -278 -123 -672
-215 -1053 -247 -182 -16 -471 -6 -624 21 -66 11 -121 18 -123 16 -11 -11 275
-67 472 -92 188 -25 621 -25 810 -1 618 79 1009 234 1400 555 42 35 74 66 72
69 -3 3 -36 -20 -74 -50 -180 -145 -421 -265 -711 -356 -217 -69 -402 -101
-402 -71 0 8 86 37 195 67 67 18 341 133 455 191 391 198 654 420 844 711 55
84 157 287 149 295 -4 3 -12 -6 -18 -21 -47 -110 -286 -356 -498 -512 -32 -24
-56 -45 -53 -48 3 -4 1 -12 -5 -20 -14 -16 -5 -17 22 -3 10 6 19 17 19 25 0 8
5 15 11 15 5 0 7 -6 4 -12 -4 -7 7 1 23 19 17 17 48 41 69 53 21 12 29 19 19
15 -16 -5 -17 -3 -6 10 7 8 18 15 24 15 6 0 18 9 26 19 7 11 18 17 23 14 6 -3
7 -2 4 4 -9 15 39 57 55 47 7 -4 10 -4 6 1 -4 4 6 20 21 35 15 16 40 43 54 60
15 17 31 29 37 25 5 -3 7 0 4 8 -3 8 -1 18 5 22 12 7 15 -14 5 -39 -3 -9 -11
-13 -17 -9 -6 3 -7 1 -3 -5 4 -7 1 -12 -8 -12 -9 0 -16 -9 -16 -20 0 -11 -11
-27 -25 -36 -14 -9 -25 -21 -25 -28 0 -6 5 -4 11 4 9 13 10 13 6 0 -2 -8 -10
-15 -17 -15 -15 0 -74 -54 -76 -70 -1 -5 -2 -16 -3 -24 0 -8 -4 -12 -7 -8 -10
10 -74 -49 -74 -67 0 -6 7 -3 14 7 7 9 16 17 20 17 4 0 -1 -11 -11 -24 -11
-15 -21 -20 -25 -13 -4 7 -24 -4 -53 -28 -29 -23 -42 -40 -35 -45 8 -5 6 -11
-5 -20 -10 -9 -15 -9 -15 -1 0 14 -59 -14 -61 -29 -1 -6 -2 -14 -3 -20 -2 -16
-46 -42 -61 -36 -8 3 -15 1 -15 -4 0 -6 -5 -10 -11 -10 -6 0 -17 -6 -25 -14
-7 -8 -19 -16 -26 -19 -7 -2 -10 -8 -6 -12 5 -5 16 -1 26 8 10 10 24 17 30 17
7 0 12 4 12 8 0 5 7 9 15 9 20 0 10 -9 -45 -38 -25 -13 -49 -28 -53 -34 -5 -5
-5 1 -1 15 6 23 6 23 -10 7 -10 -9 -14 -22 -10 -28 4 -8 -1 -9 -17 -4 -22 7
-23 7 -9 -10 14 -17 14 -17 -7 -6 -21 11 -27 8 -24 -11 0 -4 -7 -4 -16 -1 -12
5 -15 2 -10 -9 6 -16 -20 -35 -31 -23 -3 3 1 5 8 5 7 0 11 3 8 6 -10 10 -49
-16 -42 -28 4 -7 3 -8 -4 -4 -7 4 -17 2 -24 -4 -7 -6 -22 -18 -33 -26 -11 -9
-14 -12 -6 -8 9 5 12 3 7 -5 -4 -6 -12 -9 -17 -5 -19 11 -138 -44 -124 -58 3
-2 -6 -4 -18 -4 -33 -1 -107 -35 -100 -47 3 -6 1 -7 -5 -3 -7 4 -29 -2 -50
-12 -43 -23 -112 -47 -161 -57 -21 -5 -29 -10 -22 -15 8 -4 1 -10 -19 -14 -18
-3 -36 -3 -41 0 -5 3 -9 0 -9 -5 0 -6 -8 -11 -17 -11 -14 0 -13 3 5 16 13 9
29 13 37 11 7 -3 16 1 19 8 3 8 22 21 42 30 42 17 47 18 40 6 -4 -5 3 -7 15
-4 16 5 18 8 7 15 -9 6 -5 7 11 3 16 -5 21 -4 16 4 -5 8 2 10 22 6 15 -3 22
-2 16 1 -19 9 -16 24 4 17 10 -4 14 -2 9 5 -3 6 3 13 14 17 11 3 20 10 20 15
0 5 6 7 14 4 8 -3 17 -1 21 5 3 6 0 9 -8 5 -10 -4 -14 2 -12 19 3 25 -3 28
-60 28 l-30 1 35 16 c19 9 37 20 38 25 2 4 7 5 11 2 9 -5 155 52 225 88 27 15
54 23 59 20 6 -4 7 -1 2 7 -5 9 -2 10 14 5 14 -4 23 -2 27 9 5 12 11 13 24 6
10 -6 25 -10 32 -9 7 0 2 5 -11 10 -23 9 -24 10 -5 24 10 8 26 14 34 14 10 0
8 -4 -5 -10 -16 -7 -14 -8 10 -3 16 3 32 9 35 13 3 4 41 27 85 50 102 55 96
51 89 62 -3 6 -12 3 -20 -8 -12 -16 -13 -16 -14 -1 0 21 20 28 45 15 18 -9 19
-9 5 8 -14 17 -14 18 10 5 23 -12 24 -12 10 4 -12 16 -11 20 10 37 52 39 4 16
-107 -52 -64 -39 -169 -98 -232 -131 -324 -166 -861 -333 -861 -267 0 16 46
40 165 86 254 97 465 187 605 258 756 380 1170 875 1090 1306 -14 78 -81 205
-138 264 -51 52 -127 117 -146 124 -6 2 -13 7 -16 11 -6 9 -165 100 -173 100
-4 0 -7 -2 -7 -4z m228 -151 c12 -14 26 -25 32 -25 5 0 10 -6 10 -14 0 -31
-18 -24 -49 19 -34 48 -29 62 7 20z m74 -567 c-6 -6 -12 -6 -16 1 -4 6 -2 11
3 11 6 0 12 8 12 18 1 15 2 15 6 -2 3 -10 0 -23 -5 -28z m-239 -343 c-3 -9 -8
-14 -10 -11 -3 3 -2 9 2 15 9 16 15 13 8 -4z m-34 -38 c-2 -1 -13 -9 -24 -17
-19 -14 -19 -14 -6 3 7 9 18 17 24 17 6 0 8 -1 6 -3z m-69 -72 c-13 -14 -28
-25 -33 -25 -6 0 0 11 13 25 13 14 28 25 33 25 6 0 0 -11 -13 -25z m350 -109
c0 -2 -8 -10 -17 -17 -16 -13 -17 -12 -4 4 13 16 21 21 21 13z m-520 -40 c0
-3 -4 -8 -10 -11 -5 -3 -10 -1 -10 4 0 6 5 11 10 11 6 0 10 -2 10 -4z m-3203
-208 c-3 -8 -6 -5 -6 6 -1 11 2 17 5 13 3 -3 4 -12 1 -19z m3543 -10 c-11 -12
-23 -18 -27 -15 -3 4 2 14 13 22 29 22 37 18 14 -7z m-55 -68 c-3 -5 -12 -10
-18 -10 -7 0 -6 4 3 10 19 12 23 12 15 0z m-100 -100 c-29 -31 -45 -38 -45
-20 0 6 6 10 13 10 7 0 18 9 25 20 7 11 17 20 24 20 6 0 -1 -13 -17 -30z
m-3445 -11 c0 -11 5 -29 10 -39 7 -13 6 -21 -2 -26 -7 -4 -10 -4 -6 1 4 4 3
14 -3 22 -15 17 -22 76 -9 68 6 -3 10 -15 10 -26z m2656 -11 c-9 -5 -24 -7
-32 -4 -8 3 -13 2 -9 -3 5 -9 -92 -47 -107 -43 -5 1 -8 -2 -8 -7 0 -5 -10 -7
-22 -3 -16 4 -19 2 -13 -8 6 -9 4 -11 -5 -5 -7 4 -16 2 -21 -6 -6 -10 -11 -11
-19 -3 -8 8 2 15 32 25 24 7 66 26 93 41 28 15 58 28 68 28 9 0 17 5 17 10 0
7 7 7 22 -1 19 -10 20 -12 4 -21z m689 -54 c-11 -8 -19 -20 -17 -25 3 -12 -5
-12 -13 0 -6 11 22 41 38 41 7 0 3 -8 -8 -16z m-148 0 c-3 -3 -12 -4 -19 -1
-8 3 -5 6 6 6 11 1 17 -2 13 -5z m-37 -13 c0 -5 -7 -12 -16 -15 -14 -5 -15 -4
-4 9 14 17 20 19 20 6z m-755 -21 c8 -13 -5 -13 -25 0 -13 8 -13 10 2 10 9 0
20 -4 23 -10z m695 -14 c0 -2 -7 -7 -16 -10 -8 -3 -12 -2 -9 4 6 10 25 14 25
6z m-40 -16 c0 -5 -5 -10 -11 -10 -5 0 -7 5 -4 10 3 6 8 10 11 10 2 0 4 -4 4
-10z m-2924 -62 c8 -25 -16 -51 -39 -42 -21 8 -32 41 -17 58 15 19 48 9 56
-16z m2511 26 c-3 -3 -12 -4 -19 -1 -8 3 -5 6 6 6 11 1 17 -2 13 -5z m-2477
-107 c-10 -9 -12 -8 -6 8 l6 20 -16 -20 -16 -20 4 20 c4 28 21 37 31 19 6 -10
4 -20 -3 -27z m2150 -11 c0 -5 -59 -36 -68 -36 -2 0 6 9 19 20 22 17 49 26 49
16z m180 -101 c-7 -9 -15 -13 -19 -10 -3 3 1 10 9 15 21 14 24 12 10 -5z
m-1787 -12 c-7 -2 -19 -2 -25 0 -7 3 -2 5 12 5 14 0 19 -2 13 -5z m1719 -14
c-23 -11 -47 -17 -53 -14 -5 4 -15 2 -22 -3 -19 -16 -84 -25 -91 -13 -4 6 -1
9 6 6 8 -3 33 1 56 9 23 9 49 13 57 10 8 -4 15 -1 15 6 0 7 7 10 15 7 8 -4 17
-2 20 3 4 6 14 10 23 10 9 -1 -2 -10 -26 -21z m507 -72 c-2 -1 -13 -9 -24 -17
-19 -14 -19 -14 -6 3 7 9 18 17 24 17 6 0 8 -1 6 -3z m-95 -45 c3 -5 -1 -9 -9
-9 -8 0 -12 4 -9 9 3 4 7 8 9 8 2 0 6 -4 9 -8z m-54 -22 c-8 -5 -19 -10 -25
-10 -5 0 -3 5 5 10 8 5 20 10 25 10 6 0 3 -5 -5 -10z m-45 -19 c6 -10 -46 -30
-92 -35 -15 -2 -32 -4 -36 -5 -5 0 -5 -6 -1 -13 5 -8 2 -9 -9 -5 -10 3 -17 2
-17 -3 0 -6 -5 -10 -11 -10 -5 0 -7 5 -4 10 7 12 3 12 -20 4 -13 -5 -14 -8 -3
-15 14 -9 -9 -12 -67 -10 -23 2 -27 0 -15 -8 11 -8 4 -9 -25 -5 -29 4 -36 3
-26 -4 12 -9 10 -12 -10 -16 -13 -3 -37 -8 -54 -11 -16 -4 -45 -7 -63 -7 -18
0 -30 -4 -27 -9 4 -5 -4 -9 -17 -10 -45 -2 -93 -7 -93 -9 0 -2 -11 -4 -25 -5
-14 -1 -54 -8 -90 -15 -36 -7 -78 -14 -95 -16 -136 -13 -253 -18 -385 -16 -85
2 -167 3 -182 3 -15 0 -30 4 -33 8 -6 11 106 24 131 15 16 -5 16 -4 4 5 -12 9
-8 11 20 10 19 -1 71 3 115 9 44 6 98 14 120 17 102 14 252 43 280 55 38 16
69 19 82 8 10 -8 12 -7 8 3 -3 9 1 15 12 16 33 3 78 16 83 24 3 4 21 11 39 14
19 3 43 10 53 16 11 6 22 9 24 6 3 -2 -14 -12 -36 -21 -46 -18 -68 -55 -42
-70 17 -10 113 -15 107 -6 -2 3 4 6 13 7 35 1 172 32 191 43 11 5 24 9 28 9 4
-1 22 3 38 10 17 7 42 13 57 13 15 1 25 5 21 11 -3 5 3 6 17 2 15 -5 20 -4 16
4 -4 6 -3 11 3 11 5 0 12 -4 16 -9z m-1415 -201 c0 -5 -7 -10 -16 -10 -8 0
-12 5 -9 10 3 6 10 10 16 10 5 0 9 -4 9 -10z"/>
<path d="M3295 2170 c3 -5 8 -10 11 -10 2 0 4 5 4 10 0 6 -5 10 -11 10 -5 0
-7 -4 -4 -10z"/>
<path d="M3208 2133 c7 -3 16 -2 19 1 4 3 -2 6 -13 5 -11 0 -14 -3 -6 -6z"/>
<path d="M2768 2113 c7 -3 16 -2 19 1 4 3 -2 6 -13 5 -11 0 -14 -3 -6 -6z"/>
<path d="M2440 4346 c0 -2 8 -10 18 -17 15 -13 16 -12 3 4 -13 16 -21 21 -21
13z"/>
<path d="M4936 4118 c9 -47 19 -53 18 -10 -1 20 -6 38 -12 40 -8 2 -10 -7 -6
-30z"/>
<path d="M4986 4125 c-9 -26 -7 -32 5 -12 6 10 9 21 6 23 -2 3 -7 -2 -11 -11z"/>
<path d="M4995 4091 c-3 -5 -1 -12 5 -16 5 -3 10 1 10 9 0 18 -6 21 -15 7z"/>
<path d="M4917 4020 c-3 -11 -1 -23 4 -26 5 -3 9 6 9 20 0 31 -6 34 -13 6z"/>
<path d="M4897 3983 c-9 -9 -9 -61 1 -66 4 -3 7 13 7 34 1 21 0 39 0 39 -1 0
-5 -3 -8 -7z"/>
<path d="M4941 3947 c-1 -20 -5 -26 -13 -21 -8 5 -7 0 2 -11 14 -18 15 -18 18
3 2 12 1 30 -1 40 -3 10 -5 6 -6 -11z"/>
<path d="M1852 3900 c0 -14 2 -19 5 -12 2 6 2 18 0 25 -3 6 -5 1 -5 -13z"/>
<path d="M5111 3904 c0 -11 3 -14 6 -6 3 7 2 16 -1 19 -3 4 -6 -2 -5 -13z"/>
<path d="M4991 3804 c0 -11 3 -14 6 -6 3 7 2 16 -1 19 -3 4 -6 -2 -5 -13z"/>
<path d="M4770 3680 c-9 -6 -10 -10 -3 -10 6 0 15 5 18 10 8 12 4 12 -15 0z"/>
<path d="M4659 3663 c-13 -16 -12 -17 4 -4 16 13 21 21 13 21 -2 0 -10 -8 -17
-17z"/>
<path d="M4910 3635 c0 -8 2 -15 4 -15 2 0 6 7 10 15 3 8 1 15 -4 15 -6 0 -10
-7 -10 -15z"/>
<path d="M4536 3608 c3 -5 10 -6 15 -3 13 9 11 12 -6 12 -8 0 -12 -4 -9 -9z"/>
<path d="M4886 3595 c4 -8 8 -15 10 -15 2 0 4 7 4 15 0 8 -4 15 -10 15 -5 0
-7 -7 -4 -15z"/>
<path d="M4670 3555 c-7 -8 -8 -15 -2 -15 5 0 15 7 22 15 7 8 8 15 2 15 -5 0
-15 -7 -22 -15z"/>
<path d="M4760 3519 c0 -5 5 -7 10 -4 6 3 10 8 10 11 0 2 -4 4 -10 4 -5 0 -10
-5 -10 -11z"/>
<path d="M4362 3461 c-11 -7 -11 -9 0 -14 9 -3 15 1 15 9 0 8 -1 14 -1 14 -1
0 -7 -4 -14 -9z"/>
<path d="M4752 3427 c-24 -25 -28 -42 -12 -52 5 -3 7 0 5 8 -3 7 5 25 19 40
14 15 22 27 17 27 -4 0 -17 -10 -29 -23z"/>
<path d="M4655 3400 c-3 -5 -1 -10 4 -10 6 0 11 5 11 10 0 6 -2 10 -4 10 -3 0
-8 -4 -11 -10z"/>
<path d="M4705 3370 c-3 -5 -1 -10 4 -10 6 0 11 5 11 10 0 6 -2 10 -4 10 -3 0
-8 -4 -11 -10z"/>
<path d="M4680 3340 c0 -5 5 -10 11 -10 5 0 7 5 4 10 -3 6 -8 10 -11 10 -2 0
-4 -4 -4 -10z"/>
<path d="M4640 3310 c-6 -11 -9 -20 -8 -20 2 0 11 9 21 20 9 11 13 20 7 20 -5
0 -14 -9 -20 -20z"/>
<path d="M4555 3239 c-4 -5 -4 -13 -1 -16 3 -4 6 0 6 8 0 11 2 11 10 -1 6 -9
10 -10 10 -3 0 17 -17 25 -25 12z"/>
<path d="M4478 3182 c-16 -10 -28 -21 -28 -25 0 -5 13 1 30 13 16 12 35 18 41
14 8 -4 9 -3 5 4 -9 15 -14 14 -48 -6z"/>
<path d="M1122 3135 c0 -16 2 -22 5 -12 2 9 2 23 0 30 -3 6 -5 -1 -5 -18z"/>
<path d="M1255 3105 c14 -142 65 -239 169 -327 63 -53 217 -138 276 -153 14
-3 -10 12 -52 33 -103 53 -164 99 -242 184 -74 79 -123 169 -132 243 -10 75
-26 92 -19 20z"/>
<path d="M4395 3121 c-3 -6 -1 -11 5 -11 6 0 9 -4 6 -8 -3 -5 1 -9 9 -9 12 0
12 3 3 16 -7 9 -13 17 -14 19 -1 2 -5 -1 -9 -7z"/>
<path d="M4356 3094 c-11 -7 -17 -17 -13 -20 3 -4 14 1 23 10 21 22 15 28 -10
10z"/>
<path d="M1066 3048 c-9 -36 -7 -88 4 -88 6 0 9 24 9 55 -1 30 -3 55 -4 55 -2
0 -5 -10 -9 -22z"/>
<path d="M4196 3044 c-4 -9 -4 -19 -2 -21 8 -8 26 8 26 23 0 19 -16 18 -24 -2z"/>
<path d="M4275 3036 c-11 -7 -24 -14 -30 -14 -5 0 -10 -5 -11 -12 -2 -6 -1 -7
3 0 2 5 9 8 14 5 5 -4 19 3 31 14 25 24 22 27 -7 7z"/>
<path d="M4092 2998 c3 -7 19 -14 37 -16 23 -2 31 0 26 8 -4 7 -16 10 -26 7
-11 -3 -19 -1 -19 4 0 5 -5 9 -11 9 -6 0 -9 -6 -7 -12z"/>
<path d="M4165 2971 c-28 -20 -77 -54 -110 -74 -33 -20 -53 -37 -45 -37 9 0
45 20 81 44 37 25 70 42 74 38 5 -4 4 -1 0 7 -6 11 -4 13 9 8 10 -4 15 -3 11
3 -3 6 0 10 8 10 13 0 32 28 25 36 -2 1 -26 -14 -53 -35z"/>
<path d="M1101 2920 c0 -8 6 -28 14 -45 17 -39 18 -21 0 25 -7 19 -14 28 -14
20z"/>
<path d="M1190 2846 c0 -9 5 -16 10 -16 6 0 10 4 10 9 0 6 -4 13 -10 16 -5 3
-10 -1 -10 -9z"/>
<path d="M4375 2850 c3 -5 11 -10 16 -10 6 0 7 5 4 10 -3 6 -11 10 -16 10 -6
0 -7 -4 -4 -10z"/>
<path d="M3963 2836 c-13 -6 -23 -14 -23 -19 0 -4 14 -1 30 8 17 9 30 18 30
20 0 7 -12 4 -37 -9z"/>
<path d="M3913 2813 c4 -6 -3 -13 -14 -16 -14 -4 -18 -10 -13 -18 5 -9 2 -10
-12 -5 -14 5 -16 4 -8 -4 6 -6 19 -8 28 -4 14 5 15 9 4 15 -9 6 -7 9 10 9 24
0 29 14 10 26 -6 4 -8 3 -5 -3z"/>
<path d="M1270 2720 c0 -6 4 -9 9 -5 5 3 12 -2 14 -10 4 -12 5 -12 3 1 -1 19
-26 32 -26 14z"/>
<path d="M1020 2710 c0 -25 81 -179 127 -241 74 -100 212 -186 398 -249 49
-17 91 -30 94 -30 15 0 -19 19 -54 30 -77 24 -231 110 -311 174 -97 77 -171
164 -218 260 -19 39 -35 64 -36 56z"/>
<path d="M4546 2693 c-6 -14 -5 -15 5 -6 7 7 10 15 7 18 -3 3 -9 -2 -12 -12z"/>
<path d="M1315 2680 c3 -5 11 -10 16 -10 6 0 7 5 4 10 -3 6 -11 10 -16 10 -6
0 -7 -4 -4 -10z"/>
<path d="M1338 2653 c7 -3 16 -2 19 1 4 3 -2 6 -13 5 -11 0 -14 -3 -6 -6z"/>
<path d="M1365 2640 c-3 -6 1 -7 9 -4 18 7 21 14 7 14 -6 0 -13 -4 -16 -10z"/>
<path d="M3508 2623 c7 -3 16 -2 19 1 4 3 -2 6 -13 5 -11 0 -14 -3 -6 -6z"/>
<path d="M1440 2580 c0 -5 5 -10 11 -10 5 0 7 5 4 10 -3 6 -8 10 -11 10 -2 0
-4 -4 -4 -10z"/>
<path d="M4444 2578 c-4 -7 -4 -10 1 -6 4 4 15 2 24 -5 14 -11 14 -10 2 6 -16
20 -18 21 -27 5z"/>
<path d="M1286 2562 c-2 -4 -1 -14 5 -22 7 -13 9 -13 9 -1 0 11 4 10 19 -3 11
-10 25 -15 30 -11 10 5 15 -6 13 -26 -1 -6 16 -9 51 -10 9 0 15 -4 12 -9 -3
-4 2 -10 10 -14 8 -3 15 -1 15 4 0 5 8 11 18 14 10 4 19 13 19 21 0 9 -5 14
-11 12 -6 -3 -10 -10 -8 -16 1 -6 -8 -11 -19 -11 -16 0 -19 3 -11 13 7 8 6 17
-3 30 -9 13 -14 15 -17 5 -4 -10 -9 -9 -22 5 -10 9 -20 17 -24 17 -4 -1 9 -14
28 -30 46 -40 30 -38 -40 5 -62 38 -66 39 -74 27z"/>
<path d="M1475 2560 c3 -5 8 -10 11 -10 2 0 4 5 4 10 0 6 -5 10 -11 10 -5 0
-7 -4 -4 -10z"/>
<path d="M3885 2530 c-3 -6 1 -7 9 -4 18 7 21 14 7 14 -6 0 -13 -4 -16 -10z"/>
<path d="M1570 2510 c0 -5 7 -6 17 -3 12 5 14 3 8 -7 -5 -9 -4 -11 4 -6 6 4 9
12 6 17 -8 12 -35 12 -35 -1z"/>
<path d="M4365 2500 c-3 -5 -2 -10 4 -10 5 0 13 5 16 10 3 6 2 10 -4 10 -5 0
-13 -4 -16 -10z"/>
<path d="M3127 2451 c-4 -17 -3 -21 5 -13 5 5 8 16 6 23 -3 8 -7 3 -11 -10z"/>
<path d="M3756 2457 c3 -10 9 -15 12 -12 3 3 0 11 -7 18 -10 9 -11 8 -5 -6z"/>
<path d="M1705 2430 c3 -5 11 -10 16 -10 6 0 7 5 4 10 -3 6 -11 10 -16 10 -6
0 -7 -4 -4 -10z"/>
<path d="M1324 2416 c1 -8 5 -18 8 -22 4 -3 5 1 4 10 -1 8 -5 18 -8 22 -4 3
-5 -1 -4 -10z"/>
<path d="M1635 2405 c22 -7 48 -14 58 -14 9 -1 17 -5 17 -11 0 -5 12 -10 28
-10 26 1 25 2 -13 22 -22 12 -60 23 -85 24 l-45 3 40 -14z"/>
<path d="M1750 2410 c0 -5 5 -10 11 -10 5 0 7 5 4 10 -3 6 -8 10 -11 10 -2 0
-4 -4 -4 -10z"/>
<path d="M2948 2393 c6 -2 18 -2 25 0 6 3 1 5 -13 5 -14 0 -19 -2 -12 -5z"/>
<path d="M2868 2383 c12 -2 30 -2 40 0 9 3 -1 5 -23 4 -22 0 -30 -2 -17 -4z"/>
<path d="M2808 2373 c6 -2 18 -2 25 0 6 3 1 5 -13 5 -14 0 -19 -2 -12 -5z"/>
<path d="M1780 2349 c0 -5 5 -7 10 -4 6 3 10 8 10 11 0 2 -4 4 -10 4 -5 0 -10
-5 -10 -11z"/>
<path d="M1890 2300 c-23 -7 -23 -8 -3 -9 12 -1 25 4 28 9 3 6 5 10 3 9 -2 -1
-14 -5 -28 -9z"/>
<path d="M2778 2303 c7 -3 16 -2 19 1 4 3 -2 6 -13 5 -11 0 -14 -3 -6 -6z"/>
<path d="M1640 1733 c0 -91 -5 -104 -27 -82 -6 6 -42 14 -80 16 -61 4 -74 2
-122 -24 -90 -47 -123 -143 -87 -246 18 -50 42 -76 91 -98 46 -21 139 -25 171
-6 30 17 74 54 74 61 0 9 -22 2 -41 -13 -31 -25 -92 -41 -134 -35 -22 4 -48 7
-57 7 -9 1 -15 4 -12 8 2 4 -5 10 -16 14 -21 7 -46 43 -42 59 2 5 -1 12 -6 15
-5 3 -13 17 -17 30 -5 18 -4 22 6 16 11 -6 12 -5 2 6 -16 16 -17 59 -2 59 5 0
8 4 5 8 -3 5 4 23 15 41 14 23 25 31 36 27 14 -6 14 -4 2 11 -12 15 -12 16 4
10 10 -4 16 -3 13 2 -15 23 153 35 188 13 23 -14 54 -12 67 5 8 9 9 14 2 10
-6 -4 -14 -3 -18 3 -3 5 -2 10 2 10 5 0 6 25 3 55 -4 32 -2 59 4 65 7 7 6 10
-3 10 -7 0 -10 4 -7 8 3 5 19 7 36 4 25 -4 30 -8 24 -24 -4 -15 -3 -18 6 -13
8 5 11 4 7 -2 -4 -6 -7 -109 -7 -229 l-1 -220 -25 -2 c-13 -1 -24 3 -24 8 0 6
5 10 12 10 6 0 8 3 5 6 -4 4 -13 2 -20 -4 -8 -7 -17 -9 -20 -5 -4 3 -7 -5 -7
-18 0 -22 4 -24 50 -24 l50 0 0 270 0 270 -50 0 -50 0 0 -92z"/>
<path d="M4130 1555 l0 -270 50 0 c45 0 50 2 50 22 0 12 -4 25 -10 28 -5 3
-10 -1 -10 -9 0 -19 -55 -22 -66 -4 -5 7 -2 9 8 5 16 -6 19 8 6 28 -11 19 -7
239 5 247 8 5 8 8 1 8 -7 0 -12 29 -13 77 -1 42 -4 80 -7 85 -3 4 0 8 6 8 6 0
8 5 5 10 -4 6 5 10 24 8 26 -2 31 -7 36 -41 4 -21 4 -59 0 -84 -9 -60 4 -67
73 -41 38 14 65 18 91 13 20 -3 44 -7 53 -8 10 -1 25 -9 35 -17 10 -9 23 -18
28 -20 6 -3 9 -7 8 -10 -1 -3 -5 -14 -9 -25 -6 -19 -6 -19 8 -1 14 18 15 18
23 0 11 -29 22 -143 12 -137 -4 3 -7 -1 -5 -8 4 -21 -52 -89 -74 -89 -10 0
-17 -4 -14 -9 8 -12 -32 -18 -105 -16 -51 2 -65 6 -79 25 -13 17 -19 20 -25
10 -5 -9 -4 -11 3 -6 8 5 10 2 6 -9 -9 -21 52 -45 116 -45 130 0 206 80 198
210 -3 55 -9 74 -32 104 -34 45 -101 76 -162 76 -44 0 -113 -22 -124 -40 -3
-5 -4 35 -2 89 l4 99 -56 4 -56 3 0 -270z"/>
<path d="M4626 1815 c-25 -19 -26 -73 -1 -91 20 -15 63 -18 81 -6 23 15 34 50
25 75 -15 38 -68 50 -105 22z m68 -11 c14 -5 14 -9 4 -22 -11 -13 -10 -15 5
-9 15 6 16 4 7 -13 -13 -25 -57 -37 -73 -20 -9 10 -9 11 3 5 10 -6 10 -2 -3
12 -17 19 -17 22 -2 37 17 17 34 20 59 10z"/>
<path d="M880 1548 l0 -263 201 2 201 2 2 46 2 45 -146 0 -145 0 0 65 0 65
133 0 132 0 0 45 0 45 -132 0 -133 0 1 57 2 58 141 -4 141 -3 0 51 0 51 -200
0 -200 0 0 -262z m376 215 c1 -18 -4 -23 -25 -23 -14 -1 -73 -2 -131 -3 -78
-1 -109 -5 -121 -17 -9 -8 -14 -19 -11 -24 3 -5 4 -33 3 -61 -2 -50 -1 -53 26
-58 15 -3 71 -5 123 -5 123 0 116 1 116 -21 0 -19 -8 -20 -118 -20 -129 1
-156 -9 -143 -52 5 -14 3 -19 -4 -15 -10 7 -9 -11 4 -80 5 -24 3 -24 161 -25
l122 0 0 -25 0 -24 -177 0 -176 0 1 228 c0 125 1 233 2 240 2 10 41 12 175 10
171 -3 172 -3 173 -25z"/>
<path d="M2450 1760 l0 -51 146 2 c80 0 148 -2 151 -5 4 -3 2 -6 -3 -6 -6 0
-38 -32 -73 -70 -55 -62 -61 -73 -49 -88 11 -15 11 -16 -3 -4 -15 11 -27 1
-96 -72 -75 -80 -80 -88 -82 -133 l-2 -48 231 0 230 0 0 48 0 47 -155 0 c-97
0 -155 -4 -155 -10 0 -5 8 -10 18 -10 9 -1 73 -2 142 -3 118 -2 125 -3 125
-22 0 -19 -8 -20 -185 -23 -195 -3 -245 2 -219 19 10 7 10 12 3 15 -9 4 -8 13
3 34 14 29 27 37 36 23 2 -5 2 -2 1 5 -2 7 5 21 16 32 11 11 17 20 14 20 -3 0
2 7 10 16 9 8 20 13 26 9 6 -4 7 1 3 11 -5 13 -2 15 18 9 18 -5 21 -4 9 4 -8
6 -12 11 -7 12 4 1 10 2 15 3 16 3 32 18 32 29 0 7 -4 6 -10 -3 -5 -8 -10 -10
-10 -5 0 6 8 17 18 26 9 8 39 41 66 72 27 31 54 54 60 51 6 -3 -1 5 -15 18
-24 23 -31 24 -151 22 -120 -2 -127 -1 -132 19 -3 11 -3 24 0 28 4 6 385 6
390 0 1 -1 1 -13 2 -28 0 -17 -11 -41 -30 -63 -17 -19 -27 -29 -23 -21 5 9 4
12 -3 7 -7 -4 -12 -12 -12 -19 0 -12 -48 -57 -62 -57 -4 0 -7 -3 -6 -7 3 -15
-14 -43 -23 -37 -5 3 -9 -1 -9 -9 0 -19 -61 -72 -80 -70 -10 2 -11 0 -2 -3 18
-8 4 -24 -16 -18 -15 5 -15 4 -2 -5 13 -10 12 -14 -5 -29 -11 -9 -21 -25 -23
-35 -2 -10 69 59 157 155 159 172 160 173 161 221 l0 47 -220 0 -220 0 0 -50z"/>
<path d="M2771 1746 c-9 -10 -9 -16 -1 -21 6 -4 14 -4 17 -1 4 3 1 6 -7 6 -10
0 -10 3 0 15 7 8 10 15 7 15 -2 0 -10 -6 -16 -14z"/>
<path d="M2837 1739 c7 -7 15 -10 18 -7 3 3 -2 9 -12 12 -14 6 -15 5 -6 -5z"/>
<path d="M4197 1691 c-4 -17 -3 -21 5 -13 5 5 8 16 6 23 -3 8 -7 3 -11 -10z"/>
<path d="M2100 1545 c0 -92 -4 -126 -15 -142 -18 -26 -71 -43 -109 -36 -47 9
-56 35 -56 170 l0 123 -55 0 -55 0 0 -132 c0 -111 3 -138 20 -173 24 -51 71
-75 141 -75 50 0 119 24 119 41 0 5 5 9 11 9 5 0 9 -10 7 -22 -3 -19 2 -22 50
-23 l52 -1 0 190 0 191 -55 0 -55 0 0 -120z m-209 46 c1 -25 1 -73 0 -106 -3
-74 24 -121 81 -140 21 -7 35 -8 32 -3 -4 6 3 5 14 -1 15 -8 23 -8 28 1 5 7 3
8 -7 3 -8 -5 -11 -4 -6 1 5 5 19 9 30 9 12 0 21 5 20 12 -2 7 4 10 12 7 10 -4
13 -2 10 8 -3 8 2 22 12 33 15 15 17 32 15 102 -3 67 -1 84 12 89 8 3 12 12
10 19 -4 9 1 13 13 13 17 -2 18 -14 18 -160 0 -158 0 -159 -23 -165 -36 -9
-50 12 -26 39 l19 23 -22 -18 c-11 -10 -27 -17 -35 -16 -24 3 -39 -1 -34 -9 8
-14 -54 -28 -109 -26 -67 3 -67 3 -60 14 3 6 0 10 -8 10 -8 0 -21 8 -31 19
-20 22 -33 96 -14 85 6 -4 8 -3 5 4 -9 14 -17 154 -11 180 4 13 14 20 30 20
22 0 24 -5 25 -47z m249 34 c0 -8 -4 -15 -10 -15 -5 0 -7 7 -4 15 4 8 8 15 10
15 2 0 4 -7 4 -15z"/>
<path d="M3031 1655 c-30 -9 -56 -17 -58 -18 -2 -3 17 -65 24 -76 1 -2 20 4
43 13 63 25 136 21 165 -9 44 -43 35 -50 -73 -50 -107 0 -148 -14 -179 -61
-18 -28 -20 -83 -3 -115 41 -75 195 -80 280 -10 21 18 21 20 5 15 -11 -4 -26
-12 -33 -17 -7 -6 -27 -10 -44 -9 -18 0 -27 -2 -21 -6 7 -4 -15 -8 -48 -9 -39
-1 -57 2 -52 10 3 6 1 7 -5 3 -6 -4 -24 0 -39 8 -32 17 -23 22 10 5 20 -9 20
-9 5 4 -10 8 -15 16 -12 19 3 4 -3 5 -12 5 -25 -3 -35 50 -16 81 11 16 20 21
36 16 21 -6 21 -6 1 11 -11 9 -14 14 -8 10 7 -3 22 -1 33 5 30 16 137 23 161
9 15 -8 19 -8 15 0 -4 7 1 11 13 11 21 0 25 12 22 55 -2 17 0 18 9 5 10 -13
11 -12 6 3 -3 10 -6 21 -6 24 0 3 -8 -1 -17 -8 -14 -12 -16 -12 -11 2 3 9 1
16 -5 17 -46 6 -84 16 -96 26 -11 8 -13 8 -8 0 4 -8 -6 -14 -31 -18 -20 -4
-45 -9 -55 -12 -16 -5 -17 -3 -6 14 26 41 144 50 227 17 49 -20 59 -48 61
-179 2 -73 -1 -96 -11 -96 -9 0 -9 -3 2 -10 13 -9 13 -10 0 -10 -13 0 -13 -1
0 -10 12 -8 9 -10 -13 -10 -16 0 -26 4 -22 10 10 16 -11 12 -25 -5 -18 -22 -6
-31 45 -30 l47 1 -1 139 c-2 157 -11 184 -70 219 -44 26 -158 31 -230 11z
m-11 -35 c0 -5 -5 -10 -11 -10 -5 0 -7 5 -4 10 3 6 8 10 11 10 2 0 4 -4 4 -10z"/>
<path d="M3400 1475 l0 -190 52 1 53 2 2 128 1 129 29 17 c28 18 89 24 109 10
26 -17 34 -56 34 -169 l0 -118 53 1 52 2 2 121 c1 66 5 127 10 134 18 32 98
49 130 29 24 -15 34 -69 32 -175 l-1 -110 52 0 52 0 -1 138 c-2 171 -11 197
-77 227 -54 23 -130 21 -183 -6 -33 -17 -45 -44 -13 -30 9 4 28 7 41 7 15 -1
19 2 12 7 -18 11 35 19 88 13 91 -9 111 -45 111 -194 0 -72 -3 -99 -12 -100
-7 0 -4 -4 7 -9 19 -8 19 -9 -3 -9 -13 -1 -21 -5 -18 -10 7 -11 -14 -20 -31
-14 -19 7 -16 21 5 26 12 3 13 5 2 6 -13 1 -14 17 -10 98 l5 97 -37 39 c-32
34 -40 38 -69 32 -17 -4 -37 -8 -44 -9 -7 -1 -20 -8 -29 -15 -8 -7 -20 -10
-25 -6 -7 4 -8 -1 -4 -11 3 -10 2 -15 -3 -12 -5 4 -9 -8 -9 -25 -1 -18 -2 -74
-3 -124 l-2 -93 -30 0 -30 0 0 111 c0 94 -3 115 -20 139 -11 15 -16 31 -12 35
4 5 1 5 -6 1 -7 -4 -19 -3 -26 3 -12 10 -66 8 -86 -4 -5 -3 -17 -2 -26 3 -14
8 -14 10 1 22 16 13 40 19 110 26 32 3 36 2 20 -6 -16 -8 -12 -9 15 -4 30 6
33 4 22 -8 -9 -12 -9 -15 3 -16 8 -1 22 -3 30 -4 8 -1 15 -5 15 -10 0 -4 7 -8
15 -8 8 0 15 3 15 6 0 7 -44 44 -74 61 -43 25 -154 8 -179 -27 -17 -24 -30
-15 -17 10 9 16 4 19 -45 22 l-55 3 0 -190z m80 155 c0 -9 36 -50 41 -47 2 1
-6 -7 -18 -19 -20 -20 -21 -31 -20 -118 2 -79 -1 -96 -13 -97 -10 0 -8 -3 5
-9 13 -6 15 -9 5 -9 -12 -1 -12 -3 -1 -10 9 -6 4 -10 -17 -13 -17 -2 -29 -1
-26 4 3 4 1 8 -4 8 -8 0 -13 295 -5 316 4 12 53 7 53 -6z"/>
<path d="M4871 1654 c-30 -8 -57 -16 -59 -19 -2 -2 1 -20 8 -40 9 -28 16 -35
29 -30 44 17 112 27 144 21 32 -6 67 -36 67 -58 0 -5 -29 -8 -65 -8 -137 0
-207 -34 -221 -108 -9 -47 20 -100 63 -119 18 -7 55 -13 82 -13 52 0 131 25
131 41 0 5 4 9 10 9 5 0 9 -10 7 -22 -2 -20 3 -22 46 -22 l48 -1 -3 151 c-3
135 -5 154 -23 174 -50 57 -154 74 -264 44z m151 -9 c16 -4 26 -10 24 -14 -3
-4 4 -8 15 -8 12 -1 17 3 13 10 -4 7 3 2 14 -10 12 -12 20 -28 19 -35 -2 -7
-2 -10 0 -5 11 19 25 4 21 -22 -2 -17 -1 -28 4 -25 5 3 7 -40 6 -95 -2 -61 -7
-100 -13 -98 -11 2 -15 -5 -15 -25 0 -9 3 -8 10 2 5 8 12 11 17 7 4 -5 1 -12
-6 -16 -16 -10 -53 -2 -45 10 3 5 0 9 -6 9 -6 0 -8 4 -5 10 3 6 -1 7 -9 4 -11
-4 -16 0 -16 15 0 12 5 21 11 21 5 0 7 -5 3 -12 -4 -7 -3 -8 4 -4 6 4 9 13 6
20 -3 8 -1 17 5 21 6 3 11 11 11 16 0 6 -4 7 -10 4 -5 -3 -8 0 -5 7 3 7 1 18
-3 25 -9 14 -131 26 -147 14 -14 -12 -62 -25 -53 -16 4 5 3 14 -2 20 -8 10 -3
14 20 17 16 3 30 2 30 -2 0 -11 142 7 150 20 13 22 -10 70 -43 87 -30 15 -107
14 -163 -2 -14 -5 -23 -2 -27 9 -4 10 -1 13 7 10 7 -3 16 2 20 11 3 9 10 14
15 11 5 -3 19 -2 31 2 29 11 79 14 112 7z m-162 -176 c12 -9 11 -10 -5 -5 -19
6 -19 5 -2 -8 14 -11 16 -19 8 -33 -7 -14 -6 -27 4 -46 7 -14 11 -28 8 -30 -8
-9 76 -19 88 -11 8 4 9 3 5 -4 -11 -18 5 -14 42 8 17 11 32 15 32 10 0 -6 -7
-13 -15 -16 -8 -4 -12 -10 -9 -15 3 -5 -3 -6 -12 -2 -10 3 -15 2 -12 -3 11
-17 -103 -16 -130 2 -13 9 -21 11 -18 5 4 -6 2 -11 -3 -11 -6 0 -11 7 -11 15
0 8 -4 15 -10 15 -5 0 -10 7 -10 15 0 8 -5 15 -10 15 -13 0 -3 46 19 83 17 30
20 31 41 16z m200 -43 c0 -33 -41 -63 -95 -71 -57 -9 -85 6 -85 46 0 38 23 48
113 48 64 1 67 0 67 -23z"/>
<path d="M4938 1623 c7 -3 16 -2 19 1 4 3 -2 6 -13 5 -11 0 -14 -3 -6 -6z"/>
<path d="M4617 1474 l2 -186 51 -2 50 -1 0 188 0 187 -52 0 -53 0 2 -186z m78
1 l0 -160 -27 -3 c-16 -2 -28 0 -28 5 -6 157 -3 314 5 317 6 3 19 4 30 3 19
-2 20 -9 20 -162z"/>
<path d="M3595 1620 c-3 -6 1 -7 9 -4 18 7 21 14 7 14 -6 0 -13 -4 -16 -10z"/>
<path d="M3928 1618 c5 -5 16 -8 23 -6 8 3 3 7 -10 11 -17 4 -21 3 -13 -5z"/>
<path d="M1503 1600 c-13 -5 -23 -7 -23 -3 0 3 -6 0 -14 -6 -10 -8 -16 -9 -19
-1 -3 6 -4 5 -3 -2 1 -7 -8 -24 -21 -38 -13 -14 -23 -32 -23 -42 0 -9 -4 -20
-10 -23 -5 -3 -10 -12 -10 -18 0 -7 4 -6 10 3 8 12 10 10 10 -10 0 -39 11 -70
22 -64 5 3 8 -2 6 -12 -2 -10 3 -19 10 -20 25 -3 27 -5 9 -15 -18 -11 -14 -29
6 -29 7 0 6 4 -3 10 -17 11 -17 11 75 16 89 4 95 6 89 16 -5 7 18 13 39 9 5
-1 6 3 2 9 -3 6 -12 7 -18 3 -7 -3 -5 2 4 13 22 25 24 173 3 181 -8 3 -12 8
-10 12 2 3 -15 7 -37 9 -23 1 -49 4 -57 7 -8 2 -25 0 -37 -5z m106 -26 l31 -6
0 -78 c0 -78 0 -79 -32 -98 -49 -29 -83 -34 -122 -18 -44 18 -66 51 -66 101 0
45 21 82 54 95 25 11 92 12 135 4z"/>
<path d="M3785 1600 c-3 -5 -2 -10 4 -10 5 0 13 5 16 10 3 6 2 10 -4 10 -5 0
-13 -4 -16 -10z"/>
<path d="M3966 1602 c-2 -4 1 -18 8 -31 11 -20 14 -21 19 -7 4 10 3 15 -2 12
-5 -3 -11 1 -14 8 -3 8 -1 17 6 20 9 3 9 5 0 5 -6 1 -14 -2 -17 -7z"/>
<path d="M4305 1599 c-27 -5 -56 -6 -64 -4 -11 5 -12 3 -1 -10 10 -12 10 -15
-3 -15 -8 0 -17 -10 -21 -22 -11 -43 -6 -134 8 -154 11 -15 12 -22 3 -34 -10
-13 -10 -13 4 -2 14 10 20 10 33 -3 9 -9 14 -21 11 -26 -4 -5 -2 -9 4 -9 5 0
13 5 16 10 3 6 1 10 -4 10 -6 0 -11 5 -11 11 0 8 4 8 15 -1 9 -8 28 -10 55 -5
24 4 40 3 40 -3 0 -11 47 -9 58 3 4 4 -3 4 -15 1 -26 -8 -40 9 -15 20 9 4 21
6 27 5 5 -2 7 1 2 5 -10 10 23 45 37 37 7 -4 6 -1 -1 7 -7 7 -9 25 -6 40 5 29
-30 120 -40 102 -4 -5 1 -24 9 -42 14 -27 15 -39 5 -71 -23 -77 -98 -108 -169
-71 l-37 19 -3 76 c-3 76 -3 76 27 92 35 18 103 20 133 4 17 -9 23 -8 30 5 5
9 14 13 20 10 7 -5 8 -2 3 5 -5 9 -10 10 -18 2 -13 -13 -31 -15 -23 -3 3 5 0
9 -7 9 -7 0 -21 2 -32 5 -11 3 -42 2 -70 -3z"/>
<path d="M3270 1581 c0 -6 4 -13 10 -16 6 -3 7 1 4 9 -7 18 -14 21 -14 7z"/>
<path d="M1377 1529 c4 -13 8 -18 11 -10 2 7 -1 18 -6 23 -8 8 -9 4 -5 -13z"/>
<path d="M3108 1480 c-2 -5 -12 -10 -23 -12 -28 -4 -74 -47 -69 -64 2 -8 7
-22 11 -31 3 -10 7 -22 7 -27 1 -9 46 -19 81 -17 11 1 36 2 55 2 29 0 31 2 15
9 -19 8 -18 9 5 10 14 2 28 2 33 1 4 0 6 2 5 6 -1 5 3 18 10 31 7 12 10 27 7
32 -3 6 -1 10 6 10 9 0 9 4 -1 15 -6 8 -9 18 -7 22 3 5 -9 7 -27 5 -18 -2 -49
1 -69 6 -20 6 -37 6 -39 2z m120 -55 c0 -34 -38 -62 -94 -71 -76 -11 -125 43
-72 80 15 11 45 16 94 16 70 0 72 -1 72 -25z"/>
<path d="M2580 1429 c0 -5 5 -7 10 -4 6 3 10 8 10 11 0 2 -4 4 -10 4 -5 0 -10
-5 -10 -11z"/>
<path d="M1965 1421 c-3 -5 -2 -12 3 -15 5 -3 9 1 9 9 0 17 -3 19 -12 6z"/>
<path d="M1397 1349 c7 -7 15 -10 18 -7 3 3 -2 9 -12 12 -14 6 -15 5 -6 -5z"/>
<path d="M1515 1331 c-3 -5 -2 -12 3 -15 5 -3 9 1 9 9 0 17 -3 19 -12 6z"/>
<path d="M4536 1288 c3 -5 10 -6 15 -3 13 9 11 12 -6 12 -8 0 -12 -4 -9 -9z"/>
<path d="M2546 1112 c-3 -5 1 -9 9 -9 8 0 12 4 9 9 -3 4 -7 8 -9 8 -2 0 -6 -4
-9 -8z"/>
<path d="M2840 1091 c0 -6 4 -13 10 -16 6 -3 7 1 4 9 -7 18 -14 21 -14 7z"/>
<path d="M2866 1088 c3 -5 10 -6 15 -3 13 9 11 12 -6 12 -8 0 -12 -4 -9 -9z"/>
<path d="M1239 1088 c0 -1 -1 -33 -2 -71 l-2 -67 48 0 c26 0 47 5 47 10 0 6
-16 10 -36 10 l-35 0 2 57 c2 37 -1 58 -9 61 -7 2 -12 2 -13 0z"/>
<path d="M1380 1015 l0 -70 50 3 c56 4 69 22 15 22 -19 0 -35 5 -35 10 0 6 0
13 -1 18 -1 4 13 6 30 4 23 -3 31 1 31 12 0 11 -9 16 -30 16 -20 0 -30 5 -30
15 0 10 11 15 35 15 21 0 35 5 35 13 0 8 -17 12 -50 12 l-50 0 0 -70z"/>
<path d="M1552 1023 c-18 -41 -26 -70 -19 -72 5 -2 16 4 22 13 16 21 75 22 75
1 0 -8 8 -15 19 -15 16 0 16 5 -10 60 -16 33 -29 64 -29 70 0 5 -6 10 -14 10
-7 0 -27 -30 -44 -67z m51 -21 c-24 -6 -31 3 -21 28 l9 24 12 -24 c11 -20 10
-26 0 -28z"/>
<path d="M1710 1020 c0 -56 3 -70 15 -70 9 0 15 9 15 24 0 19 4 23 20 19 10
-3 22 -13 25 -23 3 -10 15 -20 25 -23 23 -6 25 1 6 26 -12 15 -12 22 -1 44 15
28 5 62 -18 64 -7 0 -29 2 -49 4 l-38 4 0 -69z m88 18 c3 -14 -3 -18 -27 -18
-25 0 -31 4 -31 21 0 16 5 20 27 17 17 -2 29 -10 31 -20z"/>
<path d="M1880 1021 c0 -54 3 -70 16 -75 14 -5 15 2 12 50 -3 52 -2 54 12 33
30 -46 62 -79 76 -79 12 0 14 14 12 67 -4 79 -25 100 -30 28 l-3 -45 -35 44
c-50 64 -60 60 -60 -23z"/>
<path d="M2350 1019 l0 -69 55 0 c30 0 55 5 55 10 0 6 -18 10 -40 10 -33 0
-40 3 -40 19 0 17 5 19 35 14 28 -4 35 -2 35 11 0 12 -9 16 -35 16 -24 0 -35
5 -35 15 0 11 11 15 41 15 60 0 44 21 -19 24 l-52 3 0 -68z"/>
<path d="M2510 1020 c0 -58 3 -70 16 -70 14 0 16 7 11 45 -4 25 -4 45 -2 45 3
0 12 -18 21 -40 20 -49 39 -51 54 -5 16 48 34 45 25 -4 -5 -30 -3 -40 9 -44
14 -5 16 5 16 68 0 90 -14 98 -52 28 l-26 -47 -23 47 c-34 69 -49 62 -49 -23z"/>
<path d="M2725 1082 c-3 -3 -5 -34 -5 -69 0 -49 3 -63 15 -63 8 0 15 9 15 20
0 15 7 20 29 20 19 0 35 8 44 21 16 22 12 58 -7 65 -18 7 -86 11 -91 6z m79
-31 c11 -18 -6 -41 -30 -41 -19 0 -24 5 -24 25 0 20 5 25 24 25 14 0 27 -4 30
-9z"/>
<path d="M2902 1070 c-48 -45 -16 -123 49 -123 66 0 95 77 45 120 -33 28 -65
29 -94 3z m82 -26 c20 -19 20 -24 0 -52 -19 -28 -51 -26 -70 3 -12 18 -11 24
2 43 18 26 46 28 68 6z"/>
<path d="M3063 1078 c3 -7 13 -39 23 -70 24 -73 45 -76 65 -10 l15 47 13 -48
c10 -33 19 -47 29 -45 13 3 66 128 57 136 -13 13 -34 -13 -45 -55 l-12 -48
-16 53 c-8 28 -20 52 -27 52 -7 0 -19 -24 -27 -52 l-15 -53 -14 50 c-10 33
-21 51 -33 53 -12 3 -17 -1 -13 -10z"/>
<path d="M3319 1086 c0 -1 -2 -31 -2 -69 l-2 -67 43 0 c23 0 45 0 49 -1 4 0 9
4 11 10 2 7 -12 11 -37 11 -30 0 -41 4 -41 15 0 10 11 15 35 15 24 0 35 5 35
15 0 10 -11 15 -35 15 -24 0 -35 5 -35 15 0 11 11 15 41 15 58 0 45 23 -14 25
-26 0 -47 1 -48 1z"/>
<path d="M3470 1018 c0 -56 3 -68 16 -68 11 0 15 6 11 20 -7 27 28 28 42 1 11
-19 40 -35 49 -26 3 3 -3 14 -13 25 -14 16 -16 23 -7 32 7 7 12 24 12 39 0 30
-20 41 -78 43 l-32 1 0 -67z m86 31 c8 -14 -10 -32 -36 -34 -15 -1 -20 4 -20
22 0 18 6 23 24 23 14 0 28 -5 32 -11z"/>
<path d="M3904 1081 c-11 -11 -1 -21 21 -21 24 0 25 -3 25 -60 0 -50 2 -58 16
-53 12 4 15 18 12 59 -3 50 -1 54 20 54 12 0 22 6 22 13 0 8 -18 12 -56 12
-30 0 -57 -2 -60 -4z"/>
<path d="M4070 1015 c0 -63 2 -73 16 -68 9 3 14 15 12 31 -3 21 1 25 30 27 29
2 32 0 32 -26 0 -17 5 -29 13 -29 8 0 12 20 12 67 0 44 -4 68 -12 70 -9 3 -13
-6 -13 -26 0 -28 -3 -31 -33 -31 -32 0 -33 2 -29 30 3 23 0 30 -12 30 -13 0
-16 -13 -16 -75z"/>
<path d="M4250 1018 c0 -52 3 -68 14 -68 9 0 12 7 9 20 -8 29 24 26 54 -6 29
-31 42 -25 20 10 -14 21 -14 25 -2 30 18 7 20 50 3 64 -7 5 -32 12 -55 14
l-43 4 0 -68z m77 27 c7 -20 4 -22 -27 -27 -20 -2 -26 2 -28 20 -3 18 1 22 23
22 14 0 28 -7 32 -15z"/>
<path d="M4420 1016 c0 -56 3 -74 13 -71 15 7 14 138 -2 143 -7 2 -11 -21 -11
-72z"/>
<path d="M4490 1086 c0 -19 62 -136 72 -136 7 0 25 29 41 63 31 71 32 77 13
77 -8 0 -23 -23 -34 -52 l-20 -53 -11 28 c-6 15 -15 38 -21 52 -5 14 -16 25
-25 25 -8 0 -15 -2 -15 -4z"/>
<path d="M4680 1016 l0 -71 50 0 c33 0 50 4 50 13 0 7 -15 12 -41 12 -33 0
-40 3 -37 18 2 13 11 16 36 14 24 -3 32 0 32 12 0 11 -10 16 -33 16 -23 0 -34
5 -34 15 0 11 11 15 39 15 24 0 38 5 38 13 0 8 -17 12 -50 13 l-50 0 0 -70z"/>
<path d="M2154 1025 c-4 -9 -2 -21 4 -27 16 -16 47 -5 47 17 0 26 -42 34 -51
10z"/>
<path d="M3723 1024 c-3 -8 -1 -20 5 -26 16 -16 42 -2 42 22 0 24 -38 28 -47
4z"/>
</g>
</svg>
